<svg width="143" height="88" viewBox="0 0 143 88" fill="none" xmlns="http://www.w3.org/2000/svg">
<path d="M30.2918 47.4903C30.2918 47.4903 32.0411 39.4605 29.6552 34.6887C27.6861 30.7505 17.7257 25.145 17.7257 25.145C15.5791 30.5117 16.145 39.476 17.0569 41.9555L17.7257 44.2323L16.4797 46.3536C13.9375 50.6819 10.195 54.1804 5.70543 56.4251L2.64907 57.9532C1.39194 58.5819 0.882305 60.1106 1.51099 61.3677L5.79609 70.4774C5.79609 70.4774 21.901 74.5036 33.1031 71.2695" stroke="white" stroke-width="1.2871" stroke-miterlimit="10" stroke-linecap="round" stroke-linejoin="round"/>
<path d="M24.0078 27.844C35.8906 10.903 111.876 -25.2211 133.88 35.3283C136.259 41.8743 136.702 48.9688 135.257 55.7823C133.349 64.7757 130.508 78.1681 129.244 84.1284C128.866 85.9095 127.294 87.1795 125.474 87.1795H125.444C122.901 87.1795 122.219 85.1543 121.74 82.657C120.32 75.2499 120.625 63.8464 111.5 48.1016" stroke="white" stroke-width="1.2871" stroke-miterlimit="10" stroke-linecap="round" stroke-linejoin="round"/>
<path d="M58.3793 34.0586C58.3793 34.0586 66.9276 47.4915 60.8218 57.2611C56.0268 64.933 49.7259 77.8766 47.2409 83.081C46.5791 84.4675 45.1781 85.3483 43.6418 85.3483H43.5812C40.8445 85.3483 38.9289 82.6756 39.8048 80.0831C41.6126 74.7322 43.5471 65.8526 41.2828 56.04" stroke="white" stroke-width="1.2871" stroke-miterlimit="10" stroke-linecap="round" stroke-linejoin="round"/>
<path d="M62.043 58.4814C62.043 58.4814 99.8998 62.1449 112.112 53.5967" stroke="white" stroke-width="1.2871" stroke-miterlimit="10" stroke-linecap="round" stroke-linejoin="round"/>
<path d="M101.233 58.5479C101.233 58.5479 101.233 68.0915 98.3709 78.6301C97.6468 81.2968 98.6808 84.0129 101.444 84.0129C102.839 84.0129 104.106 83.202 104.691 81.9355L110.776 70.4774" stroke="white" stroke-width="1.2871" stroke-miterlimit="10" stroke-linecap="round" stroke-linejoin="round"/>
<path d="M60.7081 74.2444L60.2343 79.4555C59.9081 83.0441 63.6483 85.5968 66.8712 83.9854L66.9125 83.9646C68.3655 83.2381 69.3272 81.7991 69.443 80.1789L70.2155 60.9346" stroke="white" stroke-width="1.2871" stroke-miterlimit="10" stroke-linecap="round" stroke-linejoin="round"/>
<path d="M132.928 17.8181C132.928 17.8181 147.583 14.1545 139.034 25.1452" stroke="white" stroke-width="1.2871" stroke-miterlimit="10" stroke-linecap="round" stroke-linejoin="round"/>
</svg>
