<svg width="145" height="91" viewBox="0 0 145 91" fill="none" xmlns="http://www.w3.org/2000/svg">
<path d="M31.2918 48.4903C31.2918 48.4903 33.0411 40.4605 30.6552 35.6887C28.6861 31.7505 18.7257 26.145 18.7257 26.145C16.5791 31.5117 17.145 40.476 18.0569 42.9555L18.7257 45.2323L17.4797 47.3536C14.9375 51.6819 11.195 55.1804 6.70543 57.4251L3.64907 58.9532C2.39194 59.5819 1.8823 61.1106 2.51099 62.3677L6.79609 71.4774C6.79609 71.4774 22.901 75.5036 34.1031 72.2695" stroke="white" stroke-width="4.29" stroke-miterlimit="10" stroke-linecap="round" stroke-linejoin="round"/>
<path d="M25.0078 28.844C36.8906 11.903 112.876 -24.2211 134.88 36.3283C137.259 42.8743 137.702 49.9688 136.257 56.7823C134.349 65.7757 131.508 79.1681 130.244 85.1284C129.866 86.9095 128.294 88.1795 126.474 88.1795H126.444C123.901 88.1795 123.219 86.1543 122.74 83.657C121.32 76.2499 121.625 64.8464 112.5 49.1016" stroke="white" stroke-width="4.29" stroke-miterlimit="10" stroke-linecap="round" stroke-linejoin="round"/>
<path d="M59.3793 35.0586C59.3793 35.0586 67.9276 48.4915 61.8218 58.2611C57.0268 65.933 50.7259 78.8766 48.2409 84.081C47.5791 85.4675 46.1781 86.3483 44.6418 86.3483H44.5812C41.8445 86.3483 39.9289 83.6756 40.8048 81.0831C42.6126 75.7322 44.5471 66.8526 42.2828 57.04" stroke="white" stroke-width="4.29" stroke-miterlimit="10" stroke-linecap="round" stroke-linejoin="round"/>
<path d="M63.043 59.4814C63.043 59.4814 100.9 63.1449 113.112 54.5967" stroke="white" stroke-width="4.29" stroke-miterlimit="10" stroke-linecap="round" stroke-linejoin="round"/>
<path d="M102.233 59.5479C102.233 59.5479 102.233 69.0915 99.3709 79.6301C98.6468 82.2968 99.6808 85.0129 102.444 85.0129C103.839 85.0129 105.106 84.202 105.691 82.9355L111.776 71.4774" stroke="white" stroke-width="4.29" stroke-miterlimit="10" stroke-linecap="round" stroke-linejoin="round"/>
<path d="M61.7081 75.2444L61.2343 80.4555C60.9081 84.0441 64.6483 86.5968 67.8712 84.9854L67.9125 84.9646C69.3655 84.2381 70.3272 82.7991 70.443 81.1789L71.2155 61.9346" stroke="white" stroke-width="4.29" stroke-miterlimit="10" stroke-linecap="round" stroke-linejoin="round"/>
<path d="M133.928 18.8181C133.928 18.8181 148.583 15.1545 140.034 26.1452" stroke="white" stroke-width="4.29" stroke-miterlimit="10" stroke-linecap="round" stroke-linejoin="round"/>
</svg>
