<svg width="144" height="180" viewBox="0 0 144 180" fill="none" xmlns="http://www.w3.org/2000/svg">
<path d="M78.3356 122.63C169.616 119.685 137.237 1.89844 134.275 16.6398C131.314 31.3812 45.9561 116.74 37.1049 104.959C28.2729 93.1824 16.4927 90.2373 10.6059 99.0693C4.71576 107.901 1.77393 110.846 1.77393 110.846C1.77393 110.846 19.441 107.902 22.3861 113.791C25.3308 119.681 34.6684 139.003 51.8301 140.29C51.8301 140.29 57.6913 142.29 69.4972 166.789C83.2633 195.358 140.178 166.789 122.508 152.067C104.841 137.345 93.0641 143.235 84.2386 137.345C75.4066 131.455 78.3485 122.623 78.3485 122.623L78.3356 122.63Z" stroke="white" stroke-width="1.73632" stroke-miterlimit="10" stroke-linecap="round" stroke-linejoin="round"/>
<path d="M78.5943 59.4809C79.6043 36.8893 68.0951 -18.1205 57.7343 7.78954C45.9573 37.2337 40.0672 46.0592 40.0672 46.0592C26.0726 59.3522 20.8938 69.3236 19.0527 75.5484" stroke="white" stroke-width="1.73632" stroke-miterlimit="10" stroke-linecap="round" stroke-linejoin="round"/>
</svg>
