<svg width="141" height="105" viewBox="0 0 141 105" fill="none" xmlns="http://www.w3.org/2000/svg">
<path d="M110.623 25.8979C108.903 25.8979 106.635 25.1752 104.385 22.3302C102.812 20.3458 101.65 17.8482 100.955 16.1013C100.507 14.9764 101.056 13.6957 102.181 13.2475C103.306 12.7993 104.587 13.3483 105.035 14.4733C106.782 18.8542 108.904 21.5067 110.642 21.5067C110.724 21.5067 110.797 21.4977 110.879 21.4888C111.611 21.3879 111.758 21.1224 111.822 21.0137C112.316 20.1543 112.013 17.9313 111.09 15.6084C110.596 14.3647 110.285 13.0929 110.157 11.8312C110.038 10.6233 110.925 9.55327 112.132 9.43449C113.34 9.31572 114.41 10.2031 114.529 11.4099C114.61 12.2603 114.821 13.1198 115.169 13.9803C116.047 16.1932 117.282 20.3368 115.617 23.2087C115.032 24.2238 113.842 25.4956 111.491 25.8339C111.227 25.8698 110.934 25.8979 110.623 25.8979Z" fill="white"/>
<path d="M81.4156 65.0555C69.2786 65.0555 60.2048 60.2173 54.2774 55.5615C53.3261 54.8119 53.1614 53.4304 53.911 52.4791C54.6607 51.5278 56.0422 51.3631 56.9935 52.1127C63.8353 57.4911 75.3504 63.1339 91.4035 59.5213C92.5833 59.2558 93.7632 59.9964 94.0288 61.1774C94.2943 62.3573 93.5537 63.5372 92.3727 63.8027C88.4779 64.6711 84.8183 65.0554 81.4166 65.0554L81.4156 65.0555Z" fill="white"/>
<path d="M35.0244 104.623H27.0857C25.6683 104.623 24.3047 104.028 23.3444 102.977C22.3841 101.934 21.8989 100.525 22.0177 99.1081C22.2743 96.0627 22.42 90.7661 21.6065 82.8363C21.1762 78.6111 22.4749 74.5224 23.6559 71.4219L24.2508 69.8666C25.9887 65.3029 26.4459 60.2809 25.5775 55.3598C24.9377 51.7472 24.8178 47.8143 25.2021 43.6886C26.0526 34.7247 32.8483 27.4348 41.7204 25.9714C45.8908 25.2856 50.6932 25.1848 55.9976 25.6968C56.0345 25.6968 56.0794 25.7058 56.1163 25.7148C56.2172 25.7327 66.0673 27.1692 76.5675 26.4834C85.7882 25.8896 97.4132 23.4928 100.586 15.5532C100.962 14.2814 104.227 4.11068 112.275 0.94649C116.784 -0.828362 121.797 -0.0686823 127.165 3.18746C127.348 3.29727 127.568 3.3701 127.787 3.39812L135.196 4.1298C138.25 4.43122 140.565 7.05648 140.473 10.112C140.4 12.5815 139.97 15.7008 137.327 17.8961C136.138 18.8843 134.765 19.3415 133.55 19.7527L133.504 19.7706C133.275 19.8435 133.047 19.9264 132.818 19.9992C131.684 20.3746 130.623 20.7309 129.608 21.1791C125.785 22.88 119.382 26.6033 119.51 32.4389C119.51 32.4849 119.519 32.5577 119.519 32.6406C119.601 33.6838 119.811 37.4518 119.044 41.9788C118.001 48.1067 115.66 52.9002 112.066 56.2201C110.071 58.0678 108.425 60.1261 107.181 62.3302L106.898 62.8333C105.224 65.7881 104.154 68.9804 103.715 72.3181C102.91 78.3183 102.324 86.9067 104.062 93.7305C104.117 93.9411 104.273 94.1148 104.482 94.1876L105.671 94.6269C107.655 95.3675 108.982 97.2791 108.982 99.3922V99.5569C108.982 102.356 106.704 104.643 103.896 104.643H96.5424C95.1339 104.643 93.7804 104.048 92.82 103.024C91.8597 101.99 91.3745 100.6 91.4754 99.1916C91.695 96.2191 91.8956 90.4294 90.8535 84.9593C89.5638 78.2006 88.4108 63.9591 90.7807 54.5021C91.0731 53.3222 92.272 52.6084 93.4418 52.911C94.6217 53.2034 95.3355 54.4023 95.0329 55.5721C92.9477 63.8771 93.853 77.2771 95.1607 84.1456C96.2397 89.7984 96.1299 95.6251 95.8464 99.5119C95.8285 99.7774 95.9562 99.9511 96.029 100.033C96.1019 100.115 96.2755 100.253 96.5321 100.253H103.886C104.27 100.253 104.581 99.941 104.581 99.5578V99.3931C104.581 99.1096 104.398 98.844 104.132 98.7432L102.944 98.304C101.379 97.7191 100.2 96.4193 99.7973 94.8102C97.8857 87.3098 98.4986 78.1184 99.3491 71.7338C99.8701 67.8379 101.124 64.1147 103.062 60.6757L103.346 60.1726C104.818 57.5664 106.749 55.1517 109.071 53.0015C115.995 46.5899 115.236 34.3612 115.126 32.9883C115.118 32.8236 115.109 32.6869 115.1 32.5491C115.018 28.8267 116.536 25.4328 119.619 22.4513C121.704 20.4389 124.457 18.6652 127.805 17.1739C129.013 16.6339 130.237 16.2316 131.417 15.8383C131.637 15.7655 131.866 15.6915 132.085 15.6187L132.131 15.6008C133.028 15.2994 133.951 14.9879 134.509 14.5218C135.542 13.6713 135.99 12.3536 136.064 9.99391C136.082 9.23423 135.506 8.58545 134.747 8.51262L127.339 7.78093C126.47 7.69914 125.619 7.41454 124.869 6.95737C120.735 4.45084 117.039 3.80208 113.875 5.04581C107.499 7.54225 104.784 16.7895 104.755 16.8905C104.737 16.9544 104.709 17.0272 104.692 17.0922C102.89 21.6929 99.0387 25.2237 93.249 27.5743C88.8588 29.3582 83.3158 30.4832 76.7755 30.9032C74.6353 31.0399 72.531 31.0948 70.5377 31.0948C62.599 31.0948 56.2695 30.2073 55.5188 30.0975C50.6166 29.6314 46.2075 29.7132 42.4303 30.344C35.5159 31.487 30.2294 37.1678 29.5616 44.1462C29.2053 47.8774 29.3151 51.4079 29.882 54.6372C30.8882 60.3449 30.3571 66.1615 28.3358 71.467L27.7408 73.0222C26.7346 75.6654 25.6276 79.1234 25.957 82.4342C26.7985 90.7022 26.6427 96.2914 26.3682 99.5192C26.3503 99.7848 26.469 99.9584 26.5508 100.04C26.6237 100.122 26.7973 100.26 27.0629 100.26H35.0206C35.4049 100.26 35.7063 99.9484 35.7063 99.5652C35.7063 99.2637 35.5046 98.9892 35.2032 98.8974L33.5572 98.4223C31.5627 97.8464 30.1274 96.1443 29.9077 94.078C29.5603 90.7939 29.7979 87.5199 30.6024 84.3365C31.2612 81.7482 32.2943 79.2057 33.6937 76.791C36.1084 72.6017 38.8704 69.9862 39.6658 69.2814C39.8126 69.1537 39.9224 69.0528 40.0222 68.961C49.9005 59.6408 54.4462 52.1682 56.5315 47.5394C57.0257 46.4323 58.3243 45.9382 59.4313 46.4323C60.5382 46.9265 61.0324 48.2251 60.5383 49.3321C59.1018 52.5421 57.0996 55.8994 54.5929 59.3111C51.5015 63.5185 47.6145 67.8447 43.0407 72.1531C42.913 72.2719 42.7752 72.3997 42.5925 72.5644C41.6043 73.4428 32.9979 81.4543 34.2875 93.6193C34.3144 93.9028 34.5071 94.1314 34.7817 94.2043L36.4377 94.6793C38.6059 95.3012 40.1151 97.3136 40.1151 99.5634C40.1005 102.344 37.8226 104.623 35.0236 104.623L35.0244 104.623Z" fill="white"/>
<path d="M32.75 35.0463C32.2379 35.0463 31.7348 34.8727 31.3135 34.5163C28.8899 32.421 23.2279 28.2686 12.5174 23.9513C6.53523 21.5366 2.63012 18.052 0.928269 13.6071C-1.32169 7.7345 1.21175 2.44824 1.32156 2.22852L5.26339 4.158L5.27235 4.14904C5.25443 4.18602 3.47062 8.02718 5.05274 12.0878C6.3144 15.3259 9.37894 17.9503 14.1624 19.8808C25.4603 24.4278 31.5512 28.9187 34.1856 31.1865C35.0999 31.982 35.2008 33.3636 34.4142 34.287C33.975 34.7901 33.362 35.0466 32.7503 35.0466L32.75 35.0463Z" fill="white"/>
</svg>
