<svg width="145" height="123" viewBox="0 0 145 123" fill="none" xmlns="http://www.w3.org/2000/svg">
<path d="M51.7178 59.9811C55.629 59.9811 58.7996 56.8104 58.7996 52.8992C58.7996 48.988 55.629 45.8174 51.7178 45.8174C47.8066 45.8174 44.636 48.988 44.636 52.8992C44.636 56.8104 47.8066 59.9811 51.7178 59.9811Z" fill="white"/>
<path d="M90.9637 59.9811C94.8748 59.9811 98.0455 56.8104 98.0455 52.8992C98.0455 48.988 94.8748 45.8174 90.9637 45.8174C87.0525 45.8174 83.8818 48.988 83.8818 52.8992C83.8818 56.8104 87.0525 59.9811 90.9637 59.9811Z" fill="white"/>
<path d="M62.488 80.4487C62.488 80.4487 64.2585 86.5469 71.3403 87.3339C78.4221 88.1207 80.7827 80.4487 80.7827 80.4487" stroke="white" stroke-width="4.27" stroke-miterlimit="10" stroke-linecap="round" stroke-linejoin="round"/>
<path d="M71.3406 87.333L71.6357 97.5625C75.4804 100.031 77.7078 101.125 83.5369 99.9231" stroke="white" stroke-width="4.27" stroke-miterlimit="10" stroke-linecap="round" stroke-linejoin="round"/>
<path d="M60.1282 99.9231C64.7509 100.71 67.0134 99.9231 71.6361 97.5625" stroke="white" stroke-width="4.27" stroke-miterlimit="10" stroke-linecap="round" stroke-linejoin="round"/>
<path d="M84.926 110.939C97.6662 117.488 107.788 115.005 115.029 110.365" stroke="white" stroke-width="4.27" stroke-miterlimit="10" stroke-linecap="round" stroke-linejoin="round"/>
<path d="M12.1002 82.1525C3.16272 50.2282 33.3761 37.958 33.3761 37.958C26.2943 35.5973 13.7045 15.3355 24.1303 5.893C34.5562 -3.54946 48.9167 13.7616 48.9167 13.7616C48.9167 13.7616 72.1552 3.92567 96.1417 13.7616C96.1417 13.7616 110.502 -3.54946 120.928 5.893C131.354 15.3355 118.764 35.5973 111.682 37.958C111.682 37.958 141.382 49.9799 133.178 81.3397" stroke="white" stroke-width="4.27" stroke-miterlimit="10" stroke-linecap="round" stroke-linejoin="round"/>
<path d="M31.4333 111.218C38.5569 115.283 48.1934 117.075 60.1279 110.939" stroke="white" stroke-width="4.27" stroke-miterlimit="10" stroke-linecap="round" stroke-linejoin="round"/>
<path d="M48.9152 79.8584C48.9152 79.8584 8.78488 86.1535 2.29321 107.596" stroke="white" stroke-width="4.27" stroke-miterlimit="10" stroke-linecap="round" stroke-linejoin="round"/>
<path d="M50.6861 88.6406C50.6861 88.6406 21.7642 93.8736 16.4573 119.989" stroke="white" stroke-width="4.27" stroke-miterlimit="10" stroke-linecap="round" stroke-linejoin="round"/>
<path d="M96.1421 79.8584C96.1421 79.8584 136.272 86.1535 142.764 107.596" stroke="white" stroke-width="4.27" stroke-miterlimit="10" stroke-linecap="round" stroke-linejoin="round"/>
<path d="M94.3706 88.6406C94.3706 88.6406 122.09 97.5631 128.599 119.989" stroke="white" stroke-width="4.27" stroke-miterlimit="10" stroke-linecap="round" stroke-linejoin="round"/>
</svg>
