<svg width="143" height="119" viewBox="0 0 143 119" fill="none" xmlns="http://www.w3.org/2000/svg">
<path d="M50.7178 57.9811C54.629 57.9811 57.7996 54.8104 57.7996 50.8992C57.7996 46.988 54.629 43.8174 50.7178 43.8174C46.8066 43.8174 43.636 46.988 43.636 50.8992C43.636 54.8104 46.8066 57.9811 50.7178 57.9811Z" fill="white"/>
<path d="M89.9637 57.9811C93.8748 57.9811 97.0455 54.8104 97.0455 50.8992C97.0455 46.988 93.8748 43.8174 89.9637 43.8174C86.0525 43.8174 82.8818 46.988 82.8818 50.8992C82.8818 54.8104 86.0525 57.9811 89.9637 57.9811Z" fill="white"/>
<path d="M61.488 78.4487C61.488 78.4487 63.2585 84.5469 70.3403 85.3339C77.4221 86.1207 79.7827 78.4487 79.7827 78.4487" stroke="white" stroke-width="1.27345" stroke-miterlimit="10" stroke-linecap="round" stroke-linejoin="round"/>
<path d="M70.3406 85.333L70.6357 95.5625C74.4804 98.0315 76.7078 99.1254 82.5369 97.9231" stroke="white" stroke-width="1.27345" stroke-miterlimit="10" stroke-linecap="round" stroke-linejoin="round"/>
<path d="M59.1282 97.9231C63.7509 98.7101 66.0134 97.9231 70.6361 95.5625" stroke="white" stroke-width="1.27345" stroke-miterlimit="10" stroke-linecap="round" stroke-linejoin="round"/>
<path d="M83.926 108.939C96.6662 115.488 106.788 113.005 114.029 108.365" stroke="white" stroke-width="1.27345" stroke-miterlimit="10" stroke-linecap="round" stroke-linejoin="round"/>
<path d="M11.1002 80.1525C2.16272 48.2282 32.3761 35.958 32.3761 35.958C25.2943 33.5973 12.7045 13.3355 23.1303 3.893C33.5562 -5.54946 47.9167 11.7616 47.9167 11.7616C47.9167 11.7616 71.1552 1.92567 95.1417 11.7616C95.1417 11.7616 109.502 -5.54946 119.928 3.893C130.354 13.3355 117.764 33.5973 110.682 35.958C110.682 35.958 140.382 47.9799 132.178 79.3397" stroke="white" stroke-width="1.27345" stroke-miterlimit="10" stroke-linecap="round" stroke-linejoin="round"/>
<path d="M30.4333 109.218C37.5569 113.283 47.1934 115.075 59.1279 108.939" stroke="white" stroke-width="1.27345" stroke-miterlimit="10" stroke-linecap="round" stroke-linejoin="round"/>
<path d="M47.9152 77.8584C47.9152 77.8584 7.78488 84.1535 1.29321 105.596" stroke="white" stroke-width="1.27345" stroke-miterlimit="10" stroke-linecap="round" stroke-linejoin="round"/>
<path d="M49.6861 86.6406C49.6861 86.6406 20.7642 91.8736 15.4573 117.989" stroke="white" stroke-width="1.27345" stroke-miterlimit="10" stroke-linecap="round" stroke-linejoin="round"/>
<path d="M95.1421 77.8584C95.1421 77.8584 135.272 84.1535 141.764 105.596" stroke="white" stroke-width="1.27345" stroke-miterlimit="10" stroke-linecap="round" stroke-linejoin="round"/>
<path d="M93.3706 86.6406C93.3706 86.6406 121.09 95.5631 127.599 117.989" stroke="white" stroke-width="1.27345" stroke-miterlimit="10" stroke-linecap="round" stroke-linejoin="round"/>
</svg>
