<svg width="143" height="131" viewBox="0 0 143 131" fill="none" xmlns="http://www.w3.org/2000/svg">
<path d="M125.318 69.0859C130.045 75.3994 142.815 86.9489 141.478 112.495" stroke="white" stroke-width="1.44211" stroke-miterlimit="10" stroke-linecap="round" stroke-linejoin="round"/>
<path d="M55.9331 80.0542C55.9331 80.0542 78.5978 98.185 55.9331 130.217" stroke="white" stroke-width="1.44211" stroke-miterlimit="10" stroke-linecap="round" stroke-linejoin="round"/>
<path d="M63.1418 50.6059C64.6091 72.9423 38.2204 76.5445 31.1857 78.2332C30.2968 78.4465 29.4967 78.9015 28.8504 79.5482L22.9085 85.49C21.9745 86.4241 20.7073 86.9491 19.3862 86.9491H9.99749C6.78156 86.9491 3.92626 84.8912 2.90935 81.8402L1.48985 77.5815C0.800155 75.5124 1.04904 73.2449 2.17127 71.3747L25.659 32.2286L38.2869 19.6007L32.6327 1.14083C32.6327 1.14083 53.4911 -0.72697 55.1242 15.3914C55.1242 15.3914 100.377 21.919 83.3353 67.2071C83.3353 67.2071 78.9912 83.11 89.6843 97.1064" stroke="white" stroke-width="1.44211" stroke-miterlimit="10" stroke-linecap="round" stroke-linejoin="round"/>
<path d="M51.7012 5.56512C51.7012 5.56512 111.166 -5.18349 105.055 58.9187" stroke="white" stroke-width="1.44211" stroke-miterlimit="10" stroke-linecap="round" stroke-linejoin="round"/>
<path d="M102.497 29.9829C102.497 29.9829 141.971 47.5903 117.083 89.3826C117.083 89.3826 102.714 106.926 118.753 125.75" stroke="white" stroke-width="1.44211" stroke-miterlimit="10" stroke-linecap="round" stroke-linejoin="round"/>
<path d="M34.3255 50.7682C37.2783 50.7682 39.672 48.3745 39.672 45.4217C39.672 42.4689 37.2783 40.0752 34.3255 40.0752C31.3727 40.0752 28.979 42.4689 28.979 45.4217C28.979 48.3745 31.3727 50.7682 34.3255 50.7682Z" fill="white"/>
</svg>
