<svg width="146" height="135" viewBox="0 0 146 135" fill="none" xmlns="http://www.w3.org/2000/svg">
<path d="M127.318 71.0859C132.045 77.3994 144.815 88.9489 143.478 114.495" stroke="white" stroke-width="4.44" stroke-miterlimit="10" stroke-linecap="round" stroke-linejoin="round"/>
<path d="M57.9331 82.0542C57.9331 82.0542 80.5978 100.185 57.9331 132.217" stroke="white" stroke-width="4.44" stroke-miterlimit="10" stroke-linecap="round" stroke-linejoin="round"/>
<path d="M65.1418 52.6059C66.6091 74.9423 40.2204 78.5445 33.1857 80.2332C32.2968 80.4465 31.4967 80.9015 30.8504 81.5482L24.9085 87.49C23.9745 88.4241 22.7073 88.9491 21.3862 88.9491H11.9975C8.78156 88.9491 5.92626 86.8912 4.90935 83.8402L3.48985 79.5815C2.80016 77.5124 3.04904 75.2449 4.17127 73.3747L27.659 34.2286L40.2869 21.6007L34.6327 3.14083C34.6327 3.14083 55.4911 1.27303 57.1242 17.3914C57.1242 17.3914 102.377 23.919 85.3353 69.2071C85.3353 69.2071 80.9912 85.11 91.6843 99.1064" stroke="white" stroke-width="4.44" stroke-miterlimit="10" stroke-linecap="round" stroke-linejoin="round"/>
<path d="M53.7012 7.56512C53.7012 7.56512 113.166 -3.18349 107.055 60.9187" stroke="white" stroke-width="4.44" stroke-miterlimit="10" stroke-linecap="round" stroke-linejoin="round"/>
<path d="M104.497 31.9829C104.497 31.9829 143.971 49.5903 119.083 91.3826C119.083 91.3826 104.714 108.926 120.753 127.75" stroke="white" stroke-width="4.44" stroke-miterlimit="10" stroke-linecap="round" stroke-linejoin="round"/>
<path d="M36.3255 52.7682C39.2783 52.7682 41.672 50.3745 41.672 47.4217C41.672 44.4689 39.2783 42.0752 36.3255 42.0752C33.3727 42.0752 30.979 44.4689 30.979 47.4217C30.979 50.3745 33.3727 52.7682 36.3255 52.7682Z" fill="white"/>
</svg>
