<svg width="142" height="122" viewBox="0 0 142 122" fill="none" xmlns="http://www.w3.org/2000/svg">
<path d="M39.5533 64.6543C33.3513 78.0615 4.83972 67.3367 4.83972 67.3367C3.27473 66.6276 2.15658 65.1968 1.84609 63.5073L0.876627 58.2293C0.645339 56.9703 0.882396 55.6699 1.54348 54.5738L6.62997 46.1375C9.07081 42.0891 12.6198 38.8243 16.8575 36.7293L26.6022 31.9116C26.6022 31.9116 35.9051 3.45536 51.0453 1.08398C51.0453 1.08398 63.0843 13.3056 41.9249 40.485C41.9249 40.485 47.2343 44.1225 51.4103 51.0648C51.4103 51.0648 91.416 27.7793 116.713 78.2442C140.172 125.043 94.8546 122.129 79.4464 119.933C75.5416 119.377 72.0096 117.041 70.3599 113.458C68.6376 109.718 69.0036 105.269 79.1368 103.964" stroke="white" stroke-width="1.41463" stroke-miterlimit="10" stroke-linecap="round" stroke-linejoin="round"/>
<path d="M16.2529 79.4214C17.1269 87.0699 21.6932 95.5626 33.7351 97.3038C33.7351 97.3038 37.5657 102.047 33.7351 106.06C33.7351 106.06 30.1923 109.122 27.3175 111.976C23.9948 115.274 26.3339 120.948 31.0152 120.948H41.2233C43.0233 120.948 44.6976 120.025 45.6584 118.503L55.4116 103.051L58.7081 92.6531" stroke="white" stroke-width="1.41463" stroke-miterlimit="10" stroke-linecap="round" stroke-linejoin="round"/>
<path d="M131.633 97.3054C131.633 97.3054 144.496 97.0324 140.484 107.43C136.471 117.827 127.263 116.955 127.263 116.955" stroke="white" stroke-width="1.41463" stroke-miterlimit="10" stroke-linecap="round" stroke-linejoin="round"/>
<path d="M19.6948 24.4584C19.2904 16.449 21.6615 5.50553 30.2519 1.08349C30.2519 1.08349 35.3319 0.472486 38.5379 9.44243" stroke="white" stroke-width="1.41463" stroke-miterlimit="10" stroke-linecap="round" stroke-linejoin="round"/>
</svg>
