<svg width="146" height="126" viewBox="0 0 146 126" fill="none" xmlns="http://www.w3.org/2000/svg">
<path d="M41.5533 66.6543C35.3513 80.0615 6.83972 69.3367 6.83972 69.3367C5.27473 68.6276 4.15658 67.1968 3.84609 65.5073L2.87663 60.2293C2.64534 58.9703 2.8824 57.6699 3.54348 56.5738L8.62997 48.1375C11.0708 44.0891 14.6198 40.8243 18.8575 38.7293L28.6022 33.9116C28.6022 33.9116 37.9051 5.45536 53.0453 3.08398C53.0453 3.08398 65.0843 15.3056 43.9249 42.485C43.9249 42.485 49.2343 46.1225 53.4103 53.0648C53.4103 53.0648 93.416 29.7793 118.713 80.2442C142.172 127.043 96.8546 124.129 81.4464 121.933C77.5416 121.377 74.0096 119.041 72.3599 115.458C70.6376 111.718 71.0036 107.269 81.1368 105.964" stroke="white" stroke-width="4.41" stroke-miterlimit="10" stroke-linecap="round" stroke-linejoin="round"/>
<path d="M18.2529 81.4214C19.1269 89.0699 23.6932 97.5626 35.7351 99.3038C35.7351 99.3038 39.5657 104.047 35.7351 108.06C35.7351 108.06 32.1923 111.122 29.3175 113.976C25.9948 117.274 28.3339 122.948 33.0152 122.948H43.2233C45.0233 122.948 46.6976 122.025 47.6584 120.503L57.4116 105.051L60.7081 94.6531" stroke="white" stroke-width="4.41" stroke-miterlimit="10" stroke-linecap="round" stroke-linejoin="round"/>
<path d="M133.633 99.3054C133.633 99.3054 146.496 99.0324 142.484 109.43C138.471 119.827 129.263 118.955 129.263 118.955" stroke="white" stroke-width="4.41" stroke-miterlimit="10" stroke-linecap="round" stroke-linejoin="round"/>
<path d="M21.6948 26.4584C21.2904 18.449 23.6615 7.50553 32.2519 3.08349C32.2519 3.08349 37.3319 2.47249 40.5379 11.4424" stroke="white" stroke-width="4.41" stroke-miterlimit="10" stroke-linecap="round" stroke-linejoin="round"/>
</svg>
