<svg width="142" height="51" viewBox="0 0 142 51" fill="none" xmlns="http://www.w3.org/2000/svg">
<path d="M80.269 34.4754C80.269 34.4754 97.4224 31.2109 110.699 34.4754C123.976 37.7398 141.387 33.3872 141.387 33.3872C141.387 33.3872 124.702 34.8382 108.017 25.4073C91.332 15.9764 78.274 22.1428 64.128 21.2362C49.9821 20.3293 33.297 11.2614 25.3173 6.00192C17.3375 0.742414 12.078 1.2865 12.078 1.2865C12.078 1.2865 10.8086 2.91874 6.45597 5.09505C2.10336 7.27137 -4.42555 9.44769 8.63227 13.8003C21.6901 18.153 27.8562 24.3191 27.8562 24.3191" stroke="white" stroke-width="1.17403" stroke-miterlimit="10" stroke-linecap="round" stroke-linejoin="round"/>
<path d="M39.9434 31.2686C39.9434 31.2686 52.3829 35.2009 63.0405 34.2941" stroke="white" stroke-width="1.17403" stroke-miterlimit="10" stroke-linecap="round" stroke-linejoin="round"/>
<path d="M34.7491 26.8589L28.2202 42.0931" stroke="white" stroke-width="1.17403" stroke-miterlimit="10" stroke-linecap="round" stroke-linejoin="round"/>
<path d="M28.2193 37.7407H26.043" stroke="white" stroke-width="1.17403" stroke-miterlimit="10" stroke-linecap="round" stroke-linejoin="round"/>
<path d="M30.396 37.7407L32.5723 39.917" stroke="white" stroke-width="1.17403" stroke-miterlimit="10" stroke-linecap="round" stroke-linejoin="round"/>
<path d="M72.9364 34.4893L71.9189 49.4299" stroke="white" stroke-width="1.17403" stroke-miterlimit="10" stroke-linecap="round" stroke-linejoin="round"/>
<path d="M70.4765 45.8574L68.458 46.6709" stroke="white" stroke-width="1.17403" stroke-miterlimit="10" stroke-linecap="round" stroke-linejoin="round"/>
<path d="M72.4961 45.0454L75.2345 46.0176" stroke="white" stroke-width="1.17403" stroke-miterlimit="10" stroke-linecap="round" stroke-linejoin="round"/>
</svg>
