<svg width="46" height="43" viewBox="0 0 46 43" fill="none" xmlns="http://www.w3.org/2000/svg">
<path d="M20.3415 8.22636C21.6261 12.0801 20.3146 15.9698 17.413 16.922C14.5115 17.8743 11.1158 15.5207 9.83124 11.6669C8.54665 7.81313 9.85819 3.92343 12.7598 2.97121C15.6613 2.019 19.0569 4.37259 20.3415 8.22636ZM9.01378 17.7216C10.7116 20.6321 10.2984 24.0187 8.0975 25.2764C5.89662 26.534 2.73455 25.1955 1.04572 22.285C-0.643111 19.3744 -0.247853 15.9878 1.95302 14.7302C4.15389 13.4725 7.31596 14.811 9.00479 17.7216H9.01378ZM6.21103 35.9214C10.9182 23.2282 19.2815 20.0033 22.9916 20.0033C26.7016 20.0033 35.0649 23.2282 39.7721 35.9214C40.0955 36.7928 40.2392 37.727 40.2392 38.6613V38.805C40.2392 41.1227 38.3617 43.0001 36.0441 43.0001C35.011 43.0001 33.9869 42.8744 32.9898 42.6228L25.0846 40.6466C23.7102 40.3052 22.2729 40.3052 20.8985 40.6466L12.9933 42.6228C11.9962 42.8744 10.9721 43.0001 9.93904 43.0001C7.62139 43.0001 5.74391 41.1227 5.74391 38.805V38.6613C5.74391 37.727 5.88764 36.7928 6.21103 35.9214ZM37.8856 25.2764C35.6848 24.0187 35.2715 20.6321 36.9693 17.7216C38.6672 14.811 41.8203 13.4725 44.0211 14.7302C46.222 15.9878 46.6352 19.3744 44.9374 22.285C43.2396 25.1955 40.0865 26.534 37.8856 25.2764ZM28.7461 14.9481C25.8445 13.9959 27.4615 13.7426 28.7461 9.8888C30.0307 6.03502 29.2941 4.33721 32.1956 5.28942C35.0972 6.24164 33.4802 6.72493 32.1956 10.5787C30.911 14.4325 31.6476 15.9003 28.7461 14.9481Z" fill="#114A04"/>
<path d="M28.0688 17.2715C27.9176 17.3313 27.7592 17.3369 27.6157 17.2875C27.4722 17.2381 27.3508 17.1362 27.2684 16.9959C24.8343 12.8546 23.2633 5.51944 28.4771 2.40517C29.9067 1.55404 31.5074 1.35297 32.9328 1.84545C34.3621 2.33758 35.5015 3.48325 36.0996 5.02886C38.2908 10.6929 32.5372 15.505 28.0688 17.2715Z" fill="#114A04" stroke="#30A813" stroke-linecap="round" stroke-linejoin="round"/>
<path d="M30.6157 9.16166C31.0855 9.22769 31.5623 9.10439 31.9411 8.81889C32.32 8.53339 32.5699 8.10908 32.636 7.6393C32.702 7.16952 32.5787 6.69276 32.2932 6.31389C32.0077 5.93502 31.5834 5.68508 31.1136 5.61906C30.6438 5.55303 30.167 5.67633 29.7882 5.96183C29.4093 6.24733 29.1594 6.67164 29.0933 7.14142C29.0273 7.6112 29.1506 8.08797 29.4361 8.46683C29.7216 8.8457 30.1459 9.09564 30.6157 9.16166Z" fill="white" stroke="#30A813" stroke-opacity="0.866667" stroke-linecap="round" stroke-linejoin="round"/>
</svg>
