<svg width="146" height="184" viewBox="0 0 146 184" fill="none" xmlns="http://www.w3.org/2000/svg">
<path d="M79.3356 124.63C170.616 121.685 138.237 3.89844 135.275 18.6398C132.314 33.3812 46.9561 118.74 38.1049 106.959C29.2729 95.1824 17.4927 92.2373 11.6059 101.069C5.71576 109.901 2.77393 112.846 2.77393 112.846C2.77393 112.846 20.441 109.902 23.3861 115.791C26.3308 121.681 35.6684 141.003 52.8301 142.29C52.8301 142.29 58.6913 144.29 70.4972 168.789C84.2633 197.358 141.178 168.789 123.508 154.067C105.841 139.345 94.0641 145.235 85.2386 139.345C76.4066 133.455 79.3485 124.623 79.3485 124.623L79.3356 124.63Z" stroke="#0B2B04" stroke-width="4.74" stroke-miterlimit="10" stroke-linecap="round" stroke-linejoin="round"/>
<path d="M79.5943 61.4809C80.6043 38.8893 69.0951 -16.1205 58.7343 9.78954C46.9573 39.2337 41.0672 48.0592 41.0672 48.0592C27.0726 61.3522 21.8938 71.3236 20.0527 77.5484" stroke="#0B2B04" stroke-width="4.74" stroke-miterlimit="10" stroke-linecap="round" stroke-linejoin="round"/>
</svg>
