<svg width="141" height="121" viewBox="0 0 141 121" fill="none" xmlns="http://www.w3.org/2000/svg">
<path d="M3.12879 31.346C4.00862 29.5436 7.99919 22.0381 14.9482 18.6328C15.0004 18.3605 15.0549 18.1021 15.1105 17.8447C15.1276 17.7579 15.1469 17.6721 15.1673 17.5863C15.274 17.1049 15.3807 16.6471 15.4943 16.2118C15.5158 16.1324 15.5351 16.0552 15.5544 15.9769C15.6203 15.7336 15.6895 15.503 15.7554 15.2746C15.777 15.2071 15.7962 15.1363 15.8201 15.0699C16.8123 11.8103 18.0793 10.0745 19.7878 9.51369C19.8139 9.50404 19.8423 9.49975 19.8695 9.48903C20.0217 9.44292 20.1772 9.40218 20.3362 9.37323C20.4224 9.35714 20.5099 9.34964 20.5995 9.33892C20.6801 9.32927 20.7596 9.31104 20.8436 9.30889C20.88 9.30461 20.9151 9.31318 20.9537 9.31211C20.9957 9.31211 21.0355 9.30246 21.0798 9.30246C22.827 9.30246 24.3561 10.3511 25.8447 12.6605C26.7904 14.0694 27.6952 15.9256 28.5625 18.2211C29.8908 18.7422 31.2214 19.422 32.5349 20.2465C39.8655 24.8623 42.4187 29.9266 44.4712 33.9967C46.8904 38.7928 48.222 41.4336 56.4586 41.4336C57.7085 41.4336 59.1128 41.3671 60.6341 41.2342C83.4214 39.2399 104.342 37.5212 104.549 37.5061L104.835 37.4964C105.945 37.4964 115.89 37.7173 123.451 45.375C123.872 45.8029 124.275 46.2425 124.666 46.6971C126.471 43.8128 128.831 37.7013 124.172 29.3498C119.886 21.6641 110.54 15.9523 100.918 15.1377C93.5716 14.5169 87.2719 16.909 83.1507 21.8796C79.9674 25.7202 75.9904 27.3543 72.5029 26.264C69.6533 25.3676 67.7676 22.7289 67.6973 19.5435C67.6428 17.0795 68.744 8.58099 85.1773 2.68282C96.1033 -1.24153 107.149 -0.853397 117.115 3.80006C127.547 8.67331 136.293 18.1892 139.401 28.046C143.288 40.3798 139.95 52.634 130.907 59.7026C131.898 64.1427 132.2 69.1779 131.799 74.7909L131.81 74.955C132.856 87.3925 135.31 90.6962 136.316 91.5356L137.472 91.9538L128.159 121H110.108L109.884 119.477C109.817 118.865 109.31 113.607 112.349 110.425C113.642 109.07 115.391 108.467 117.419 108.405C117.628 103.823 117.429 93.2523 111.932 85.6899C107.602 87.7786 96.346 92.4137 81.2067 92.4137C74.2804 92.4137 67.3767 91.4552 60.6512 89.5209C59.4898 92.9155 57.5089 99.9385 58.7825 105.143C60.9293 113.93 55.5492 120.312 55.3211 120.601L54.5979 120.999H36.4323L35.809 120.127C35.5604 119.569 33.4408 114.807 35.8544 111.372C36.6525 110.238 38.2078 109.049 41.1889 108.791C41.6431 104.218 41.9099 92.3493 33.7688 84.6582L33.2216 84.1757C22.5955 74.144 17.581 69.4283 16.6986 49.4421C12.3266 48.4985 2.39169 45.7708 0.370923 40.0195C-0.317061 38.0713 -0.374958 35.0123 3.12966 31.3462L3.12879 31.346ZM134.782 29.3409C132.537 22.2106 125.541 12.8086 114.979 7.87741C106.253 3.79771 96.5356 3.47162 86.8912 6.93279C76.1628 10.783 72.4436 16.0787 72.5186 19.4467C72.5447 20.7011 73.1248 21.6597 74.0297 21.9439C75.157 22.2955 77.1528 21.7348 79.3599 19.0713C84.5244 12.843 92.3339 9.83952 101.354 10.604C112.536 11.5529 123.421 18.2317 128.439 27.2266C134.404 37.9187 130.944 45.853 128.496 49.4955C128.25 50.126 128.124 51.0427 128.691 52.1364C129.445 53.5903 130.769 52.9845 131.494 52.4934C136.167 46.4503 137.496 37.9552 134.782 29.341L134.782 29.3409ZM4.93651 38.5942C5.99118 41.5965 13.2195 44.1558 18.5294 45.1818C19.3649 45.6 21.0974 46.6883 21.4868 48.7406C22.2179 67.3854 26.2369 71.1917 36.6212 80.9928L37.1684 81.5117C49.1265 92.8044 45.8249 110.849 45.6784 111.612C45.3617 113.066 43.5293 113.451 43.2886 113.494L43.1036 113.48C42.8061 113.455 42.528 113.455 42.2635 113.455C41.4063 113.455 40.2938 113.244 39.8669 113.848C39.3673 114.553 39.4741 115.467 39.7806 116.85H52.0746C53.1929 115.467 55.3375 110.965 54.0818 105.831C52.6161 99.8369 54.5507 92.5383 55.8721 88.5187C55.9845 88.3343 56.1015 88.1209 56.2218 87.78C57.4695 84.2416 61.9914 85.0437 61.9914 85.0437H61.9857C68.2773 86.4268 74.7305 87.8401 81.2026 87.8401C95.8217 87.8401 106.72 83.1524 110.173 81.4539C112.876 80.1984 114.555 81.5697 114.974 81.9804C124.196 93.2162 122.126 110.574 122.032 111.318L121.99 111.66C121.832 112.09 121.157 113.623 119.741 113.422L119.075 113.274C118.569 113.159 118.105 113.111 117.695 113.111C116.688 113.111 116.223 113.125 115.928 113.43C115.1 114.292 114.775 115.469 114.671 116.852H124.564L132.025 93.4856C129.432 90.3227 127.784 84.3792 127.007 75.1238L126.965 74.7239L126.976 74.5909C127.845 62.8503 125.472 54.073 119.926 48.4545C113.864 42.3162 106.014 42.0447 104.867 42.0362C103.27 42.1692 83.0442 43.8397 61.08 45.7599C59.4134 45.9068 57.8592 45.9829 56.4572 45.9829C45.1827 45.9797 42.726 41.1108 40.1228 35.9524C38.2564 32.2457 36.1324 28.0565 30.0823 24.1741L27.6653 24.7649C27.0693 24.7381 26.1054 23.5812 25.1098 22.1583C24.977 21.7337 24.8407 22.8167 24.6988 20.0504H24.6931L24.3094 19.8359C22.9164 15.9986 21.8368 14.6753 21.2305 13.9097C20.8921 14.5606 20.3881 16.0392 19.8647 18.4281C19.8488 18.501 19.8341 18.6822 19.8182 18.7572C19.7921 18.8805 19.7682 19.0532 19.7387 19.1808C19.6933 19.4059 19.6467 19.6665 19.6013 19.9099C19.5956 19.9377 19.59 19.9817 19.5866 20.0085C19.4867 20.5425 19.3856 21.1268 19.288 21.7509C18.9713 22.3963 18.3117 23.475 17.3172 23.6851L15.7164 23.4986C10.4261 26.9061 7.41975 33.4369 7.38691 33.511L7.2189 33.8863L6.92146 34.1855C5.1856 35.9128 4.51921 37.3967 4.93812 38.5943L4.93651 38.5942Z" fill="#0B2B04"/>
</svg>
