<svg width="145" height="123" viewBox="0 0 145 123" fill="none" xmlns="http://www.w3.org/2000/svg">
<path d="M51.7178 47.9521C54.4497 47.9523 56.6641 50.1674 56.6641 52.8994C56.664 55.6313 54.4497 57.8456 51.7178 57.8457C48.9858 57.8457 46.7706 55.6314 46.7705 52.8994C46.7705 50.1673 48.9857 47.9521 51.7178 47.9521Z" fill="#0B2B04" stroke="#0B2B04" stroke-width="4.27"/>
<path d="M90.9634 47.9521C93.6953 47.9523 95.9097 50.1674 95.9097 52.8994C95.9096 55.6313 93.6953 57.8456 90.9634 57.8457C88.2314 57.8457 86.0162 55.6314 86.0161 52.8994C86.0161 50.1673 88.2313 47.9521 90.9634 47.9521Z" fill="#0B2B04" stroke="#0B2B04" stroke-width="4.27"/>
<path d="M62.4878 80.4487C62.4878 80.4487 64.2582 86.5469 71.3401 87.3339C78.4219 88.1207 80.7825 80.4487 80.7825 80.4487" stroke="#0B2B04" stroke-width="4.27" stroke-miterlimit="10" stroke-linecap="round" stroke-linejoin="round"/>
<path d="M71.3403 87.333L71.6354 97.5625C75.4801 100.031 77.7076 101.125 83.5366 99.9231" stroke="#0B2B04" stroke-width="4.27" stroke-miterlimit="10" stroke-linecap="round" stroke-linejoin="round"/>
<path d="M60.1279 99.9231C64.7507 100.71 67.0131 99.9231 71.6359 97.5625" stroke="#0B2B04" stroke-width="4.27" stroke-miterlimit="10" stroke-linecap="round" stroke-linejoin="round"/>
<path d="M84.9258 110.939C97.666 117.488 107.787 115.005 115.028 110.365" stroke="#0B2B04" stroke-width="4.27" stroke-miterlimit="10" stroke-linecap="round" stroke-linejoin="round"/>
<path d="M12.1 82.1525C3.16248 50.2282 33.3759 37.958 33.3759 37.958C26.294 35.5973 13.7042 15.3355 24.1301 5.893C34.5559 -3.54946 48.9164 13.7616 48.9164 13.7616C48.9164 13.7616 72.1549 3.92567 96.1415 13.7616C96.1415 13.7616 110.502 -3.54946 120.928 5.893C131.354 15.3355 118.764 35.5973 111.682 37.958C111.682 37.958 141.382 49.9799 133.178 81.3397" stroke="#0B2B04" stroke-width="4.27" stroke-miterlimit="10" stroke-linecap="round" stroke-linejoin="round"/>
<path d="M31.4331 111.218C38.5567 115.283 48.1932 117.075 60.1277 110.939" stroke="#0B2B04" stroke-width="4.27" stroke-miterlimit="10" stroke-linecap="round" stroke-linejoin="round"/>
<path d="M48.9149 79.8584C48.9149 79.8584 8.78463 86.1535 2.29297 107.596" stroke="#0B2B04" stroke-width="4.27" stroke-miterlimit="10" stroke-linecap="round" stroke-linejoin="round"/>
<path d="M50.6858 88.6406C50.6858 88.6406 21.7639 93.8736 16.457 119.989" stroke="#0B2B04" stroke-width="4.27" stroke-miterlimit="10" stroke-linecap="round" stroke-linejoin="round"/>
<path d="M96.1416 79.8584C96.1416 79.8584 136.272 86.1535 142.764 107.596" stroke="#0B2B04" stroke-width="4.27" stroke-miterlimit="10" stroke-linecap="round" stroke-linejoin="round"/>
<path d="M94.3701 88.6406C94.3701 88.6406 122.09 97.5631 128.599 119.989" stroke="#0B2B04" stroke-width="4.27" stroke-miterlimit="10" stroke-linecap="round" stroke-linejoin="round"/>
</svg>
