<svg width="146" height="126" viewBox="0 0 146 126" fill="none" xmlns="http://www.w3.org/2000/svg">
<path d="M41.5535 66.6543C35.3515 80.0615 6.83996 69.3367 6.83996 69.3367C5.27497 68.6276 4.15682 67.1968 3.84634 65.5073L2.87687 60.2293C2.64558 58.9703 2.88264 57.6699 3.54372 56.5738L8.63021 48.1375C11.0711 44.0891 14.6201 40.8243 18.8577 38.7293L28.6025 33.9116C28.6025 33.9116 37.9054 5.45536 53.0455 3.08398C53.0455 3.08398 65.0845 15.3056 43.9251 42.485C43.9251 42.485 49.2345 46.1225 53.4106 53.0648C53.4106 53.0648 93.4162 29.7793 118.713 80.2442C142.172 127.043 96.8548 124.129 81.4467 121.933C77.5418 121.377 74.0098 119.041 72.3601 115.458C70.6378 111.718 71.0039 107.269 81.137 105.964" stroke="#0B2B04" stroke-width="4.41" stroke-miterlimit="10" stroke-linecap="round" stroke-linejoin="round"/>
<path d="M18.2532 81.4214C19.1272 89.0699 23.6934 97.5626 35.7353 99.3038C35.7353 99.3038 39.566 104.047 35.7353 108.06C35.7353 108.06 32.1926 111.122 29.3177 113.976C25.995 117.274 28.3341 122.948 33.0154 122.948H43.2236C45.0235 122.948 46.6979 122.025 47.6587 120.503L57.4118 105.051L60.7083 94.6531" stroke="#0B2B04" stroke-width="4.41" stroke-miterlimit="10" stroke-linecap="round" stroke-linejoin="round"/>
<path d="M133.634 99.3054C133.634 99.3054 146.497 99.0324 142.484 109.43C138.471 119.827 129.263 118.955 129.263 118.955" stroke="#0B2B04" stroke-width="4.41" stroke-miterlimit="10" stroke-linecap="round" stroke-linejoin="round"/>
<path d="M21.695 26.4584C21.2907 18.449 23.6618 7.50553 32.2522 3.08349C32.2522 3.08349 37.3321 2.47249 40.5381 11.4424" stroke="#0B2B04" stroke-width="4.41" stroke-miterlimit="10" stroke-linecap="round" stroke-linejoin="round"/>
</svg>
