<svg width="146" height="53" viewBox="0 0 146 53" fill="none" xmlns="http://www.w3.org/2000/svg">
<path d="M82.269 35.4754C82.269 35.4754 99.4224 32.2109 112.699 35.4754C125.976 38.7398 143.387 34.3872 143.387 34.3872C143.387 34.3872 126.702 35.8382 110.017 26.4073C93.332 16.9764 80.274 23.1428 66.128 22.2362C51.9821 21.3293 35.297 12.2614 27.3173 7.00192C19.3375 1.74241 14.078 2.2865 14.078 2.2865C14.078 2.2865 12.8086 3.91874 8.45597 6.09505C4.10336 8.27137 -2.42555 10.4477 10.6323 14.8003C23.6901 19.153 29.8562 25.3191 29.8562 25.3191" stroke="#0B2B04" stroke-width="4.17" stroke-miterlimit="10" stroke-linecap="round" stroke-linejoin="round"/>
<path d="M41.9434 32.2686C41.9434 32.2686 54.3829 36.2009 65.0405 35.2941" stroke="#0B2B04" stroke-width="4.17" stroke-miterlimit="10" stroke-linecap="round" stroke-linejoin="round"/>
<path d="M36.7491 27.8589L30.2202 43.0931" stroke="#0B2B04" stroke-width="4.17" stroke-miterlimit="10" stroke-linecap="round" stroke-linejoin="round"/>
<path d="M30.2193 38.7407H28.043" stroke="#0B2B04" stroke-width="4.17" stroke-miterlimit="10" stroke-linecap="round" stroke-linejoin="round"/>
<path d="M32.396 38.7407L34.5723 40.917" stroke="#0B2B04" stroke-width="4.17" stroke-miterlimit="10" stroke-linecap="round" stroke-linejoin="round"/>
<path d="M74.9364 35.4893L73.9189 50.4299" stroke="#0B2B04" stroke-width="4.17" stroke-miterlimit="10" stroke-linecap="round" stroke-linejoin="round"/>
<path d="M72.4765 46.8574L70.458 47.6709" stroke="#0B2B04" stroke-width="4.17" stroke-miterlimit="10" stroke-linecap="round" stroke-linejoin="round"/>
<path d="M74.4961 46.0454L77.2345 47.0176" stroke="#0B2B04" stroke-width="4.17" stroke-miterlimit="10" stroke-linecap="round" stroke-linejoin="round"/>
</svg>
