<svg width="75" height="124" viewBox="0 0 75 124" fill="none" xmlns="http://www.w3.org/2000/svg">
<path d="M14.9645 82V70.3636H19.5554C20.438 70.3636 21.1899 70.5322 21.8111 70.8693C22.4323 71.2027 22.9058 71.6667 23.2315 72.2614C23.5611 72.8523 23.7259 73.5341 23.7259 74.3068C23.7259 75.0795 23.5592 75.7614 23.2259 76.3523C22.8925 76.9432 22.4096 77.4034 21.777 77.733C21.1482 78.0625 20.3868 78.2273 19.4929 78.2273H16.5668V76.2557H19.0952C19.5687 76.2557 19.9588 76.1742 20.2656 76.0114C20.5762 75.8447 20.8073 75.6155 20.9588 75.3239C21.1141 75.0284 21.1918 74.6894 21.1918 74.3068C21.1918 73.9205 21.1141 73.5833 20.9588 73.2955C20.8073 73.0038 20.5762 72.7784 20.2656 72.6193C19.955 72.4564 19.5611 72.375 19.0838 72.375H17.4247V82H14.9645ZM27.6989 76.9545V82H25.2784V70.3636H27.6307V74.8125H27.733C27.9299 74.2973 28.2481 73.8939 28.6875 73.6023C29.1269 73.3068 29.678 73.1591 30.3409 73.1591C30.947 73.1591 31.4754 73.2917 31.9261 73.5568C32.3807 73.8182 32.733 74.1951 32.983 74.6875C33.2367 75.1761 33.3617 75.7614 33.358 76.4432V82H30.9375V76.875C30.9413 76.3371 30.8049 75.9186 30.5284 75.6193C30.2557 75.3201 29.8731 75.1705 29.3807 75.1705C29.0511 75.1705 28.7595 75.2405 28.5057 75.3807C28.2557 75.5208 28.0587 75.7254 27.9148 75.9943C27.7746 76.2595 27.7027 76.5795 27.6989 76.9545ZM39.206 82.1705C38.3234 82.1705 37.5601 81.983 36.9162 81.608C36.276 81.2292 35.7817 80.7027 35.4332 80.0284C35.0848 79.3504 34.9105 78.5644 34.9105 77.6705C34.9105 76.7689 35.0848 75.9811 35.4332 75.3068C35.7817 74.6288 36.276 74.1023 36.9162 73.7273C37.5601 73.3485 38.3234 73.1591 39.206 73.1591C40.0885 73.1591 40.8499 73.3485 41.4901 73.7273C42.134 74.1023 42.6302 74.6288 42.9787 75.3068C43.3272 75.9811 43.5014 76.7689 43.5014 77.6705C43.5014 78.5644 43.3272 79.3504 42.9787 80.0284C42.6302 80.7027 42.134 81.2292 41.4901 81.608C40.8499 81.983 40.0885 82.1705 39.206 82.1705ZM39.2173 80.2955C39.6188 80.2955 39.9541 80.1818 40.223 79.9545C40.492 79.7235 40.6946 79.4091 40.831 79.0114C40.9711 78.6136 41.0412 78.161 41.0412 77.6534C41.0412 77.1458 40.9711 76.6932 40.831 76.2955C40.6946 75.8977 40.492 75.5833 40.223 75.3523C39.9541 75.1212 39.6188 75.0057 39.2173 75.0057C38.812 75.0057 38.4711 75.1212 38.1946 75.3523C37.9219 75.5833 37.7154 75.8977 37.5753 76.2955C37.4389 76.6932 37.3707 77.1458 37.3707 77.6534C37.3707 78.161 37.4389 78.6136 37.5753 79.0114C37.7154 79.4091 37.9219 79.7235 38.1946 79.9545C38.4711 80.1818 38.812 80.2955 39.2173 80.2955ZM49.7173 73.2727V75.0909H44.4616V73.2727H49.7173ZM45.6548 71.1818H48.0753V79.3182C48.0753 79.5417 48.1094 79.7159 48.1776 79.8409C48.2457 79.9621 48.3404 80.0473 48.4616 80.0966C48.5866 80.1458 48.7306 80.1705 48.8935 80.1705C49.0071 80.1705 49.1207 80.161 49.2344 80.142C49.348 80.1193 49.4351 80.1023 49.4957 80.0909L49.8764 81.892C49.7552 81.9299 49.5848 81.9735 49.3651 82.0227C49.1454 82.0758 48.8783 82.108 48.5639 82.1193C47.9806 82.142 47.4692 82.0644 47.0298 81.8864C46.5942 81.7083 46.2552 81.4318 46.0128 81.0568C45.7704 80.6818 45.651 80.2083 45.6548 79.6364V71.1818ZM55.1435 82.1705C54.2609 82.1705 53.4976 81.983 52.8537 81.608C52.2135 81.2292 51.7192 80.7027 51.3707 80.0284C51.0223 79.3504 50.848 78.5644 50.848 77.6705C50.848 76.7689 51.0223 75.9811 51.3707 75.3068C51.7192 74.6288 52.2135 74.1023 52.8537 73.7273C53.4976 73.3485 54.2609 73.1591 55.1435 73.1591C56.026 73.1591 56.7874 73.3485 57.4276 73.7273C58.0715 74.1023 58.5677 74.6288 58.9162 75.3068C59.2647 75.9811 59.4389 76.7689 59.4389 77.6705C59.4389 78.5644 59.2647 79.3504 58.9162 80.0284C58.5677 80.7027 58.0715 81.2292 57.4276 81.608C56.7874 81.983 56.026 82.1705 55.1435 82.1705ZM55.1548 80.2955C55.5563 80.2955 55.8916 80.1818 56.1605 79.9545C56.4295 79.7235 56.6321 79.4091 56.7685 79.0114C56.9086 78.6136 56.9787 78.161 56.9787 77.6534C56.9787 77.1458 56.9086 76.6932 56.7685 76.2955C56.6321 75.8977 56.4295 75.5833 56.1605 75.3523C55.8916 75.1212 55.5563 75.0057 55.1548 75.0057C54.7495 75.0057 54.4086 75.1212 54.1321 75.3523C53.8594 75.5833 53.6529 75.8977 53.5128 76.2955C53.3764 76.6932 53.3082 77.1458 53.3082 77.6534C53.3082 78.161 53.3764 78.6136 53.5128 79.0114C53.6529 79.4091 53.8594 79.7235 54.1321 79.9545C54.4086 80.1818 54.7495 80.2955 55.1548 80.2955ZM17.8409 93.4375H15.3523C15.3068 93.1155 15.214 92.8295 15.0739 92.5795C14.9337 92.3258 14.7538 92.1098 14.5341 91.9318C14.3144 91.7538 14.0606 91.6174 13.7727 91.5227C13.4886 91.428 13.1799 91.3807 12.8466 91.3807C12.2443 91.3807 11.7197 91.5303 11.2727 91.8295C10.8258 92.125 10.4792 92.5568 10.233 93.125C9.98674 93.6894 9.86364 94.375 9.86364 95.1818C9.86364 96.0114 9.98674 96.7083 10.233 97.2727C10.483 97.8371 10.8314 98.2633 11.2784 98.5511C11.7254 98.839 12.2424 98.983 12.8295 98.983C13.1591 98.983 13.464 98.9394 13.7443 98.8523C14.0284 98.7652 14.2803 98.6383 14.5 98.4716C14.7197 98.3011 14.9015 98.0947 15.0455 97.8523C15.1932 97.6098 15.2955 97.3333 15.3523 97.0227L17.8409 97.0341C17.7765 97.5682 17.6155 98.0833 17.358 98.5795C17.1042 99.072 16.7614 99.5133 16.3295 99.9034C15.9015 100.29 15.3902 100.597 14.7955 100.824C14.2045 101.047 13.536 101.159 12.7898 101.159C11.7519 101.159 10.8239 100.924 10.0057 100.455C9.19129 99.9848 8.54735 99.3049 8.07386 98.4148C7.60417 97.5246 7.36932 96.447 7.36932 95.1818C7.36932 93.9129 7.60795 92.8333 8.08523 91.9432C8.5625 91.053 9.21023 90.375 10.0284 89.9091C10.8466 89.4394 11.767 89.2045 12.7898 89.2045C13.464 89.2045 14.089 89.2992 14.6648 89.4886C15.2443 89.678 15.7576 89.9545 16.2045 90.3182C16.6515 90.678 17.0152 91.1193 17.2955 91.642C17.5795 92.1648 17.7614 92.7633 17.8409 93.4375ZM23.5028 101.17C22.6203 101.17 21.857 100.983 21.2131 100.608C20.5729 100.229 20.0786 99.7027 19.7301 99.0284C19.3816 98.3504 19.2074 97.5644 19.2074 96.6705C19.2074 95.7689 19.3816 94.9811 19.7301 94.3068C20.0786 93.6288 20.5729 93.1023 21.2131 92.7273C21.857 92.3485 22.6203 92.1591 23.5028 92.1591C24.3854 92.1591 25.1468 92.3485 25.7869 92.7273C26.4309 93.1023 26.9271 93.6288 27.2756 94.3068C27.6241 94.9811 27.7983 95.7689 27.7983 96.6705C27.7983 97.5644 27.6241 98.3504 27.2756 99.0284C26.9271 99.7027 26.4309 100.229 25.7869 100.608C25.1468 100.983 24.3854 101.17 23.5028 101.17ZM23.5142 99.2955C23.9157 99.2955 24.2509 99.1818 24.5199 98.9545C24.7888 98.7235 24.9915 98.4091 25.1278 98.0114C25.268 97.6136 25.3381 97.161 25.3381 96.6534C25.3381 96.1458 25.268 95.6932 25.1278 95.2955C24.9915 94.8977 24.7888 94.5833 24.5199 94.3523C24.2509 94.1212 23.9157 94.0057 23.5142 94.0057C23.1089 94.0057 22.768 94.1212 22.4915 94.3523C22.2188 94.5833 22.0123 94.8977 21.8722 95.2955C21.7358 95.6932 21.6676 96.1458 21.6676 96.6534C21.6676 97.161 21.7358 97.6136 21.8722 98.0114C22.0123 98.4091 22.2188 98.7235 22.4915 98.9545C22.768 99.1818 23.1089 99.2955 23.5142 99.2955ZM29.3722 101V92.2727H31.679V93.8125H31.7812C31.9631 93.3011 32.2661 92.8977 32.6903 92.6023C33.1146 92.3068 33.6222 92.1591 34.2131 92.1591C34.8116 92.1591 35.321 92.3087 35.7415 92.608C36.1619 92.9034 36.4422 93.3049 36.5824 93.8125H36.6733C36.8513 93.3125 37.1733 92.9129 37.6392 92.6136C38.1089 92.3106 38.6638 92.1591 39.304 92.1591C40.1184 92.1591 40.7794 92.4186 41.2869 92.9375C41.7983 93.4527 42.054 94.1837 42.054 95.1307V101H39.6392V95.608C39.6392 95.1231 39.5104 94.7595 39.2528 94.517C38.9953 94.2746 38.6733 94.1534 38.2869 94.1534C37.8475 94.1534 37.5047 94.2936 37.2585 94.5739C37.0123 94.8504 36.8892 95.2159 36.8892 95.6705V101H34.5426V95.5568C34.5426 95.1288 34.4195 94.7879 34.1733 94.5341C33.9309 94.2803 33.6108 94.1534 33.2131 94.1534C32.9441 94.1534 32.7017 94.2216 32.4858 94.358C32.2737 94.4905 32.1051 94.678 31.9801 94.9205C31.8551 95.1591 31.7926 95.4394 31.7926 95.7614V101H29.3722ZM43.9659 101V92.2727H46.3864V101H43.9659ZM45.1818 91.1477C44.822 91.1477 44.5133 91.0284 44.2557 90.7898C44.0019 90.5473 43.875 90.2576 43.875 89.9205C43.875 89.5871 44.0019 89.3011 44.2557 89.0625C44.5133 88.8201 44.822 88.6989 45.1818 88.6989C45.5417 88.6989 45.8485 88.8201 46.1023 89.0625C46.3598 89.3011 46.4886 89.5871 46.4886 89.9205C46.4886 90.2576 46.3598 90.5473 46.1023 90.7898C45.8485 91.0284 45.5417 91.1477 45.1818 91.1477ZM50.7457 95.9545V101H48.3253V92.2727H50.6321V93.8125H50.7344C50.9276 93.3049 51.2514 92.9034 51.706 92.608C52.1605 92.3087 52.7116 92.1591 53.3594 92.1591C53.9654 92.1591 54.4938 92.2917 54.9446 92.5568C55.3954 92.822 55.7457 93.2008 55.9957 93.6932C56.2457 94.1818 56.3707 94.7652 56.3707 95.4432V101H53.9503V95.875C53.9541 95.3409 53.8177 94.9242 53.5412 94.625C53.2647 94.322 52.884 94.1705 52.3991 94.1705C52.0734 94.1705 51.7855 94.2405 51.5355 94.3807C51.2893 94.5208 51.0961 94.7254 50.956 94.9943C50.8196 95.2595 50.7495 95.5795 50.7457 95.9545ZM62.2102 104.455C61.4261 104.455 60.7538 104.347 60.1932 104.131C59.6364 103.919 59.1932 103.629 58.8636 103.261C58.5341 102.894 58.3201 102.481 58.2216 102.023L60.4602 101.722C60.5284 101.896 60.6364 102.059 60.7841 102.21C60.9318 102.362 61.1269 102.483 61.3693 102.574C61.6155 102.669 61.9148 102.716 62.267 102.716C62.7936 102.716 63.2273 102.587 63.5682 102.33C63.9129 102.076 64.0852 101.65 64.0852 101.051V99.4545H63.983C63.8769 99.697 63.7178 99.9261 63.5057 100.142C63.2936 100.358 63.0208 100.534 62.6875 100.67C62.3542 100.807 61.9564 100.875 61.4943 100.875C60.839 100.875 60.2424 100.723 59.7045 100.42C59.1705 100.114 58.7443 99.6458 58.4261 99.017C58.1117 98.3845 57.9545 97.5852 57.9545 96.6193C57.9545 95.6307 58.1155 94.8049 58.4375 94.142C58.7595 93.4792 59.1875 92.983 59.7216 92.6534C60.2595 92.3239 60.8485 92.1591 61.4886 92.1591C61.9773 92.1591 62.3864 92.2424 62.7159 92.4091C63.0455 92.572 63.3106 92.7765 63.5114 93.0227C63.7159 93.2652 63.8731 93.5038 63.983 93.7386H64.0739V92.2727H66.4773V101.085C66.4773 101.828 66.2955 102.449 65.9318 102.949C65.5682 103.449 65.0644 103.824 64.4205 104.074C63.7803 104.328 63.0436 104.455 62.2102 104.455ZM62.2614 99.0568C62.6515 99.0568 62.9811 98.9602 63.25 98.767C63.5227 98.5701 63.7311 98.2898 63.875 97.9261C64.0227 97.5587 64.0966 97.1193 64.0966 96.608C64.0966 96.0966 64.0246 95.6534 63.8807 95.2784C63.7367 94.8996 63.5284 94.6061 63.2557 94.3977C62.983 94.1894 62.6515 94.0852 62.2614 94.0852C61.8636 94.0852 61.5284 94.1932 61.2557 94.4091C60.983 94.6212 60.7765 94.9167 60.6364 95.2955C60.4962 95.6742 60.4261 96.1117 60.4261 96.608C60.4261 97.1117 60.4962 97.5473 60.6364 97.9148C60.7803 98.2784 60.9867 98.5606 61.2557 98.7614C61.5284 98.9583 61.8636 99.0568 62.2614 99.0568ZM24.2926 111.71C24.2472 111.252 24.0521 110.896 23.7074 110.642C23.3627 110.388 22.8949 110.261 22.304 110.261C21.9025 110.261 21.5634 110.318 21.2869 110.432C21.0104 110.542 20.7983 110.695 20.6506 110.892C20.5066 111.089 20.4347 111.312 20.4347 111.562C20.4271 111.771 20.4706 111.953 20.5653 112.108C20.6638 112.263 20.7983 112.398 20.9688 112.511C21.1392 112.621 21.3362 112.718 21.5597 112.801C21.7831 112.881 22.0218 112.949 22.2756 113.006L23.321 113.256C23.8286 113.369 24.2945 113.521 24.7188 113.71C25.143 113.9 25.5104 114.133 25.821 114.409C26.1316 114.686 26.3722 115.011 26.5426 115.386C26.7169 115.761 26.8059 116.191 26.8097 116.676C26.8059 117.388 26.6241 118.006 26.2642 118.528C25.9081 119.047 25.393 119.451 24.7188 119.739C24.0483 120.023 23.2396 120.165 22.2926 120.165C21.3532 120.165 20.535 120.021 19.8381 119.733C19.1449 119.445 18.6032 119.019 18.2131 118.455C17.8267 117.886 17.6241 117.184 17.6051 116.347H19.9858C20.0123 116.737 20.1241 117.062 20.321 117.324C20.5218 117.581 20.7888 117.777 21.1222 117.909C21.4593 118.038 21.84 118.102 22.2642 118.102C22.6809 118.102 23.0426 118.042 23.3494 117.92C23.66 117.799 23.9006 117.631 24.071 117.415C24.2415 117.199 24.3267 116.951 24.3267 116.67C24.3267 116.409 24.2491 116.189 24.0938 116.011C23.9422 115.833 23.7188 115.682 23.4233 115.557C23.1316 115.432 22.7737 115.318 22.3494 115.216L21.0824 114.898C20.1013 114.659 19.3267 114.286 18.7585 113.778C18.1903 113.271 17.9081 112.587 17.9119 111.727C17.9081 111.023 18.0956 110.407 18.4744 109.881C18.857 109.354 19.3816 108.943 20.0483 108.648C20.715 108.352 21.4725 108.205 22.321 108.205C23.1847 108.205 23.9384 108.352 24.5824 108.648C25.2301 108.943 25.7339 109.354 26.0938 109.881C26.4536 110.407 26.6392 111.017 26.6506 111.71H24.2926ZM32.3622 120.17C31.4796 120.17 30.7164 119.983 30.0724 119.608C29.4323 119.229 28.938 118.703 28.5895 118.028C28.241 117.35 28.0668 116.564 28.0668 115.67C28.0668 114.769 28.241 113.981 28.5895 113.307C28.938 112.629 29.4323 112.102 30.0724 111.727C30.7164 111.348 31.4796 111.159 32.3622 111.159C33.2448 111.159 34.0062 111.348 34.6463 111.727C35.2902 112.102 35.7865 112.629 36.1349 113.307C36.4834 113.981 36.6577 114.769 36.6577 115.67C36.6577 116.564 36.4834 117.35 36.1349 118.028C35.7865 118.703 35.2902 119.229 34.6463 119.608C34.0062 119.983 33.2448 120.17 32.3622 120.17ZM32.3736 118.295C32.7751 118.295 33.1103 118.182 33.3793 117.955C33.6482 117.723 33.8509 117.409 33.9872 117.011C34.1274 116.614 34.1974 116.161 34.1974 115.653C34.1974 115.146 34.1274 114.693 33.9872 114.295C33.8509 113.898 33.6482 113.583 33.3793 113.352C33.1103 113.121 32.7751 113.006 32.3736 113.006C31.9683 113.006 31.6274 113.121 31.3509 113.352C31.0781 113.583 30.8717 113.898 30.7315 114.295C30.5952 114.693 30.527 115.146 30.527 115.653C30.527 116.161 30.5952 116.614 30.7315 117.011C30.8717 117.409 31.0781 117.723 31.3509 117.955C31.6274 118.182 31.9683 118.295 32.3736 118.295ZM42.1747 120.17C41.2921 120.17 40.5289 119.983 39.8849 119.608C39.2448 119.229 38.7505 118.703 38.402 118.028C38.0535 117.35 37.8793 116.564 37.8793 115.67C37.8793 114.769 38.0535 113.981 38.402 113.307C38.7505 112.629 39.2448 112.102 39.8849 111.727C40.5289 111.348 41.2921 111.159 42.1747 111.159C43.0573 111.159 43.8187 111.348 44.4588 111.727C45.1027 112.102 45.599 112.629 45.9474 113.307C46.2959 113.981 46.4702 114.769 46.4702 115.67C46.4702 116.564 46.2959 117.35 45.9474 118.028C45.599 118.703 45.1027 119.229 44.4588 119.608C43.8187 119.983 43.0573 120.17 42.1747 120.17ZM42.1861 118.295C42.5876 118.295 42.9228 118.182 43.1918 117.955C43.4607 117.723 43.6634 117.409 43.7997 117.011C43.9399 116.614 44.0099 116.161 44.0099 115.653C44.0099 115.146 43.9399 114.693 43.7997 114.295C43.6634 113.898 43.4607 113.583 43.1918 113.352C42.9228 113.121 42.5876 113.006 42.1861 113.006C41.7808 113.006 41.4399 113.121 41.1634 113.352C40.8906 113.583 40.6842 113.898 40.544 114.295C40.4077 114.693 40.3395 115.146 40.3395 115.653C40.3395 116.161 40.4077 116.614 40.544 117.011C40.6842 117.409 40.8906 117.723 41.1634 117.955C41.4399 118.182 41.7808 118.295 42.1861 118.295ZM50.4645 114.955V120H48.044V111.273H50.3509V112.812H50.4531C50.6463 112.305 50.9702 111.903 51.4247 111.608C51.8793 111.309 52.4304 111.159 53.0781 111.159C53.6842 111.159 54.2126 111.292 54.6634 111.557C55.1141 111.822 55.4645 112.201 55.7145 112.693C55.9645 113.182 56.0895 113.765 56.0895 114.443V120H53.669V114.875C53.6728 114.341 53.5365 113.924 53.2599 113.625C52.9834 113.322 52.6027 113.17 52.1179 113.17C51.7921 113.17 51.5043 113.241 51.2543 113.381C51.008 113.521 50.8149 113.725 50.6747 113.994C50.5384 114.259 50.4683 114.58 50.4645 114.955Z" fill="#D1D1D1"/>
<path d="M47.7029 39.1094C43.406 31.2969 42.074 29.3438 37.156 29.3438C32.238 29.3438 30.3747 32.293 26.0779 40.0742C22.3982 46.7266 14.9607 47.2813 13.1052 52.9297C12.7263 53.9648 12.5388 55.5742 12.5466 56.6875C12.5466 61.2813 15.6208 64.5 19.5779 64.5C24.4958 64.5 31.2966 60.5938 37.156 60.5938C43.0154 60.5938 49.8162 64.5 54.7341 64.5C58.6912 64.5 61.7654 61.2852 61.7654 56.6875C61.7654 55.5742 61.574 53.9648 61.1951 52.9297C59.3396 47.2617 51.3826 45.7617 47.7029 39.1094Z" stroke="#D1D1D1" stroke-width="4" stroke-linecap="round" stroke-linejoin="round"/>
<path d="M69.1403 17.9453C68.6385 17.7332 68.0992 17.6243 67.5544 17.625H67.4958C64.6247 17.6719 61.4021 20.5547 59.7106 24.9141C57.6833 30.1289 58.6169 35.4609 61.8122 36.8359C62.3161 37.0508 62.8552 37.1563 63.3981 37.1563C66.2849 37.1563 69.5505 34.2578 71.2536 29.8672C73.2692 24.6523 72.3161 19.3203 69.1403 17.9453Z" stroke="#D1D1D1" stroke-width="4" stroke-linecap="round" stroke-linejoin="round"/>
<path d="M27.2887 21.5312C27.5036 21.5312 27.7145 21.5312 27.9254 21.4883C31.6129 20.9883 33.9137 16.2305 33.0817 10.8555C32.2887 5.78906 28.9918 2 25.5348 2C25.32 2 25.109 2 24.8981 2.04297C21.2106 2.54297 18.9098 7.30078 19.7418 12.6758C20.5387 17.7266 23.8317 21.5312 27.2887 21.5312Z" stroke="#D1D1D1" stroke-width="4" stroke-linecap="round" stroke-linejoin="round"/>
<path d="M54.5621 12.6758C55.398 7.30079 53.0972 2.54298 49.4058 2.04298C49.1962 2.01394 48.9847 1.99958 48.773 2.00001C45.316 2.00001 42.023 5.78907 41.234 10.8555C40.398 16.2305 42.6988 20.9883 46.3902 21.4883C46.6011 21.5156 46.8121 21.5313 47.023 21.5313C50.4801 21.5313 53.7808 17.7266 54.5621 12.6758Z" stroke="#D1D1D1" stroke-width="4" stroke-linecap="round" stroke-linejoin="round"/>
<path d="M12.5071 36.8359C15.6946 35.4609 16.6243 30.1211 14.6009 24.9141C12.8977 20.5234 9.63603 17.625 6.75322 17.625C6.20634 17.625 5.67118 17.7305 5.16337 17.9453C1.97587 19.3203 1.04619 24.6602 3.06962 29.8672C4.77275 34.2578 8.03447 37.1562 10.9173 37.1562C11.4642 37.1562 11.9993 37.0508 12.5071 36.8359Z" stroke="#D1D1D1" stroke-width="4" stroke-linecap="round" stroke-linejoin="round"/>
</svg>
