<svg width="210" height="125" viewBox="0 0 210 125" fill="none" xmlns="http://www.w3.org/2000/svg">
<path d="M23.5131 90V72.5455H30.3995C31.7234 72.5455 32.8512 72.7983 33.783 73.304C34.7148 73.804 35.4251 74.5 35.9137 75.392C36.408 76.2784 36.6552 77.3011 36.6552 78.4602C36.6552 79.6193 36.4052 80.642 35.9052 81.5284C35.4052 82.4148 34.6808 83.1051 33.7319 83.5994C32.7887 84.0937 31.6467 84.3409 30.3058 84.3409H25.9165V81.3835H29.7092C30.4194 81.3835 31.0046 81.2614 31.4648 81.017C31.9308 80.767 32.2773 80.4233 32.5046 79.9858C32.7376 79.5426 32.854 79.0341 32.854 78.4602C32.854 77.8807 32.7376 77.375 32.5046 76.9432C32.2773 76.5057 31.9308 76.1676 31.4648 75.929C30.9989 75.6847 30.408 75.5625 29.6921 75.5625H27.2035V90H23.5131ZM42.6147 82.4318V90H38.984V72.5455H42.5124V79.2188H42.6658C42.9613 78.446 43.4386 77.8409 44.0977 77.4034C44.7567 76.9602 45.5835 76.7386 46.5778 76.7386C47.4869 76.7386 48.2795 76.9375 48.9556 77.3352C49.6374 77.7273 50.1658 78.2926 50.5408 79.0312C50.9215 79.7642 51.109 80.642 51.1033 81.6648V90H47.4727V82.3125C47.4783 81.5057 47.2738 80.8778 46.859 80.429C46.4499 79.9801 45.8761 79.7557 45.1374 79.7557C44.6431 79.7557 44.2056 79.8608 43.8249 80.071C43.4499 80.2812 43.1545 80.5881 42.9386 80.9915C42.7283 81.3892 42.6204 81.8693 42.6147 82.4318ZM59.8754 90.2557C58.5515 90.2557 57.4066 89.9744 56.4407 89.4119C55.4805 88.8437 54.739 88.054 54.2163 87.0426C53.6935 86.0256 53.4322 84.8466 53.4322 83.5057C53.4322 82.1534 53.6935 80.9716 54.2163 79.9602C54.739 78.9432 55.4805 78.1534 56.4407 77.5909C57.4066 77.0227 58.5515 76.7386 59.8754 76.7386C61.1992 76.7386 62.3413 77.0227 63.3015 77.5909C64.2674 78.1534 65.0117 78.9432 65.5344 79.9602C66.0572 80.9716 66.3185 82.1534 66.3185 83.5057C66.3185 84.8466 66.0572 86.0256 65.5344 87.0426C65.0117 88.054 64.2674 88.8437 63.3015 89.4119C62.3413 89.9744 61.1992 90.2557 59.8754 90.2557ZM59.8924 87.4432C60.4947 87.4432 60.9975 87.2727 61.4009 86.9318C61.8043 86.5852 62.1083 86.1136 62.3129 85.517C62.5231 84.9205 62.6282 84.2415 62.6282 83.4801C62.6282 82.7188 62.5231 82.0398 62.3129 81.4432C62.1083 80.8466 61.8043 80.375 61.4009 80.0284C60.9975 79.6818 60.4947 79.5085 59.8924 79.5085C59.2844 79.5085 58.7731 79.6818 58.3583 80.0284C57.9492 80.375 57.6396 80.8466 57.4293 81.4432C57.2248 82.0398 57.1225 82.7188 57.1225 83.4801C57.1225 84.2415 57.2248 84.9205 57.4293 85.517C57.6396 86.1136 57.9492 86.5852 58.3583 86.9318C58.7731 87.2727 59.2844 87.4432 59.8924 87.4432ZM75.6424 76.9091V79.6364H67.7589V76.9091H75.6424ZM69.5487 73.7727H73.1793V85.9773C73.1793 86.3125 73.2305 86.5739 73.3327 86.7614C73.435 86.9432 73.5771 87.071 73.7589 87.1449C73.9464 87.2187 74.1623 87.2557 74.4066 87.2557C74.5771 87.2557 74.7475 87.2415 74.918 87.2131C75.0884 87.179 75.2191 87.1534 75.31 87.1364L75.881 89.8381C75.6992 89.8949 75.4435 89.9602 75.114 90.0341C74.7844 90.1136 74.3839 90.1619 73.9123 90.179C73.0373 90.2131 72.2702 90.0966 71.6112 89.8295C70.9577 89.5625 70.4492 89.1477 70.0856 88.5852C69.7219 88.0227 69.543 87.3125 69.5487 86.4545V73.7727ZM83.7816 90.2557C82.4577 90.2557 81.3129 89.9744 80.3469 89.4119C79.3867 88.8437 78.6452 88.054 78.1225 87.0426C77.5998 86.0256 77.3384 84.8466 77.3384 83.5057C77.3384 82.1534 77.5998 80.9716 78.1225 79.9602C78.6452 78.9432 79.3867 78.1534 80.3469 77.5909C81.3129 77.0227 82.4577 76.7386 83.7816 76.7386C85.1055 76.7386 86.2475 77.0227 87.2077 77.5909C88.1737 78.1534 88.918 78.9432 89.4407 79.9602C89.9634 80.9716 90.2248 82.1534 90.2248 83.5057C90.2248 84.8466 89.9634 86.0256 89.4407 87.0426C88.918 88.054 88.1737 88.8437 87.2077 89.4119C86.2475 89.9744 85.1055 90.2557 83.7816 90.2557ZM83.7987 87.4432C84.4009 87.4432 84.9038 87.2727 85.3072 86.9318C85.7106 86.5852 86.0146 86.1136 86.2191 85.517C86.4293 84.9205 86.5344 84.2415 86.5344 83.4801C86.5344 82.7188 86.4293 82.0398 86.2191 81.4432C86.0146 80.8466 85.7106 80.375 85.3072 80.0284C84.9038 79.6818 84.4009 79.5085 83.7987 79.5085C83.1907 79.5085 82.6793 79.6818 82.2646 80.0284C81.8555 80.375 81.5458 80.8466 81.3356 81.4432C81.131 82.0398 81.0288 82.7188 81.0288 83.4801C81.0288 84.2415 81.131 84.9205 81.3356 85.517C81.5458 86.1136 81.8555 86.5852 82.2646 86.9318C82.6793 87.2727 83.1907 87.4432 83.7987 87.4432ZM113.609 78.6562H109.876C109.808 78.1733 109.669 77.7443 109.458 77.3693C109.248 76.9886 108.978 76.6648 108.649 76.3977C108.319 76.1307 107.939 75.9261 107.507 75.7841C107.081 75.642 106.618 75.571 106.118 75.571C105.214 75.571 104.427 75.7955 103.757 76.2443C103.086 76.6875 102.566 77.3352 102.197 78.1875C101.828 79.0341 101.643 80.0625 101.643 81.2727C101.643 82.517 101.828 83.5625 102.197 84.4091C102.572 85.2557 103.095 85.8949 103.765 86.3267C104.436 86.7585 105.211 86.9744 106.092 86.9744C106.586 86.9744 107.044 86.9091 107.464 86.7784C107.89 86.6477 108.268 86.4574 108.598 86.2074C108.927 85.9517 109.2 85.642 109.416 85.2784C109.637 84.9148 109.791 84.5 109.876 84.0341L113.609 84.0511C113.512 84.8523 113.271 85.625 112.885 86.3693C112.504 87.108 111.99 87.7699 111.342 88.3551C110.7 88.9347 109.933 89.3949 109.041 89.7358C108.154 90.071 107.152 90.2386 106.032 90.2386C104.475 90.2386 103.083 89.8864 101.856 89.1818C100.635 88.4773 99.6687 87.4574 98.9585 86.1222C98.2539 84.7869 97.9016 83.1705 97.9016 81.2727C97.9016 79.3693 98.2596 77.75 98.9755 76.4148C99.6914 75.0795 100.663 74.0625 101.89 73.3636C103.118 72.6591 104.498 72.3068 106.032 72.3068C107.044 72.3068 107.981 72.4489 108.845 72.733C109.714 73.017 110.484 73.4318 111.154 73.9773C111.825 74.517 112.37 75.179 112.791 75.9631C113.217 76.7472 113.49 77.6449 113.609 78.6562ZM122.102 90.2557C120.778 90.2557 119.633 89.9744 118.667 89.4119C117.707 88.8437 116.966 88.054 116.443 87.0426C115.92 86.0256 115.659 84.8466 115.659 83.5057C115.659 82.1534 115.92 80.9716 116.443 79.9602C116.966 78.9432 117.707 78.1534 118.667 77.5909C119.633 77.0227 120.778 76.7386 122.102 76.7386C123.426 76.7386 124.568 77.0227 125.528 77.5909C126.494 78.1534 127.238 78.9432 127.761 79.9602C128.284 80.9716 128.545 82.1534 128.545 83.5057C128.545 84.8466 128.284 86.0256 127.761 87.0426C127.238 88.054 126.494 88.8437 125.528 89.4119C124.568 89.9744 123.426 90.2557 122.102 90.2557ZM122.119 87.4432C122.721 87.4432 123.224 87.2727 123.627 86.9318C124.031 86.5852 124.335 86.1136 124.539 85.517C124.75 84.9205 124.855 84.2415 124.855 83.4801C124.855 82.7188 124.75 82.0398 124.539 81.4432C124.335 80.8466 124.031 80.375 123.627 80.0284C123.224 79.6818 122.721 79.5085 122.119 79.5085C121.511 79.5085 121 79.6818 120.585 80.0284C120.176 80.375 119.866 80.8466 119.656 81.4432C119.451 82.0398 119.349 82.7188 119.349 83.4801C119.349 84.2415 119.451 84.9205 119.656 85.517C119.866 86.1136 120.176 86.5852 120.585 86.9318C121 87.2727 121.511 87.4432 122.119 87.4432ZM130.906 90V76.9091H134.366V79.2188H134.52C134.792 78.4517 135.247 77.8466 135.883 77.4034C136.52 76.9602 137.281 76.7386 138.167 76.7386C139.065 76.7386 139.829 76.9631 140.46 77.4119C141.091 77.8551 141.511 78.4574 141.721 79.2188H141.858C142.125 78.4688 142.608 77.8693 143.306 77.4205C144.011 76.9659 144.843 76.7386 145.804 76.7386C147.025 76.7386 148.017 77.1278 148.778 77.9062C149.545 78.679 149.929 79.7756 149.929 81.196V90H146.306V81.9119C146.306 81.1847 146.113 80.6392 145.727 80.2756C145.341 79.9119 144.858 79.7301 144.278 79.7301C143.619 79.7301 143.105 79.9403 142.735 80.3608C142.366 80.7756 142.181 81.3239 142.181 82.0057V90H138.662V81.8352C138.662 81.1932 138.477 80.6818 138.108 80.3011C137.744 79.9205 137.264 79.7301 136.667 79.7301C136.264 79.7301 135.9 79.8324 135.576 80.0369C135.258 80.2358 135.005 80.517 134.818 80.8807C134.63 81.2386 134.537 81.6591 134.537 82.142V90H130.906ZM152.797 90V76.9091H156.427V90H152.797ZM154.62 75.2216C154.081 75.2216 153.618 75.0426 153.231 74.6847C152.85 74.321 152.66 73.8864 152.66 73.3807C152.66 72.8807 152.85 72.4517 153.231 72.0938C153.618 71.7301 154.081 71.5483 154.62 71.5483C155.16 71.5483 155.62 71.7301 156.001 72.0938C156.387 72.4517 156.581 72.8807 156.581 73.3807C156.581 73.8864 156.387 74.321 156.001 74.6847C155.62 75.0426 155.16 75.2216 154.62 75.2216ZM162.966 82.4318V90H159.336V76.9091H162.796V79.2188H162.949C163.239 78.4574 163.725 77.8551 164.407 77.4119C165.088 76.9631 165.915 76.7386 166.887 76.7386C167.796 76.7386 168.588 76.9375 169.265 77.3352C169.941 77.733 170.466 78.3011 170.841 79.0398C171.216 79.7727 171.404 80.6477 171.404 81.6648V90H167.773V82.3125C167.779 81.5114 167.574 80.8864 167.159 80.4375C166.745 79.983 166.174 79.7557 165.446 79.7557C164.958 79.7557 164.526 79.8608 164.151 80.071C163.782 80.2812 163.492 80.5881 163.282 80.9915C163.077 81.3892 162.972 81.8693 162.966 82.4318ZM180.163 95.1818C178.987 95.1818 177.978 95.0199 177.137 94.696C176.302 94.3778 175.637 93.9432 175.143 93.392C174.649 92.8409 174.328 92.2216 174.18 91.5341L177.538 91.0824C177.64 91.3438 177.802 91.5881 178.024 91.8153C178.245 92.0426 178.538 92.2244 178.902 92.3608C179.271 92.5028 179.72 92.5739 180.248 92.5739C181.038 92.5739 181.689 92.3807 182.2 91.9943C182.717 91.6136 182.975 90.9744 182.975 90.0767V87.6818H182.822C182.663 88.0455 182.424 88.3892 182.106 88.7131C181.788 89.0369 181.379 89.3011 180.879 89.5057C180.379 89.7102 179.782 89.8125 179.089 89.8125C178.106 89.8125 177.211 89.5852 176.404 89.1307C175.603 88.6705 174.964 87.9687 174.487 87.0256C174.015 86.0767 173.779 84.8778 173.779 83.429C173.779 81.946 174.021 80.7074 174.504 79.7131C174.987 78.7187 175.629 77.9744 176.43 77.4801C177.237 76.9858 178.12 76.7386 179.081 76.7386C179.814 76.7386 180.427 76.8636 180.922 77.1136C181.416 77.358 181.814 77.6648 182.115 78.0341C182.422 78.3977 182.657 78.7557 182.822 79.108H182.958V76.9091H186.564V90.1278C186.564 91.2415 186.291 92.1733 185.745 92.9233C185.2 93.6733 184.444 94.2358 183.478 94.6108C182.518 94.9915 181.413 95.1818 180.163 95.1818ZM180.24 87.0852C180.825 87.0852 181.319 86.9403 181.723 86.6506C182.132 86.3551 182.444 85.9347 182.66 85.3892C182.882 84.8381 182.993 84.179 182.993 83.4119C182.993 82.6449 182.885 81.9801 182.669 81.4176C182.453 80.8494 182.14 80.4091 181.731 80.0966C181.322 79.7841 180.825 79.6278 180.24 79.6278C179.643 79.6278 179.14 79.7898 178.731 80.1136C178.322 80.4318 178.012 80.875 177.802 81.4432C177.592 82.0114 177.487 82.6676 177.487 83.4119C177.487 84.1676 177.592 84.821 177.802 85.3722C178.018 85.9176 178.328 86.3409 178.731 86.642C179.14 86.9375 179.643 87.0852 180.24 87.0852ZM85.9389 106.565C85.8707 105.878 85.5781 105.344 85.0611 104.963C84.544 104.582 83.8423 104.392 82.956 104.392C82.3537 104.392 81.8452 104.477 81.4304 104.648C81.0156 104.812 80.6974 105.043 80.4759 105.338C80.2599 105.634 80.152 105.969 80.152 106.344C80.1406 106.656 80.206 106.929 80.348 107.162C80.4957 107.395 80.6974 107.597 80.9531 107.767C81.2088 107.932 81.5043 108.077 81.8395 108.202C82.1747 108.321 82.5327 108.423 82.9134 108.509L84.4815 108.884C85.2429 109.054 85.9418 109.281 86.5781 109.565C87.2145 109.849 87.7656 110.199 88.2315 110.614C88.6974 111.028 89.0582 111.517 89.3139 112.08C89.5753 112.642 89.7088 113.287 89.7145 114.014C89.7088 115.082 89.4361 116.009 88.8963 116.793C88.3622 117.571 87.5895 118.176 86.5781 118.608C85.5724 119.034 84.3594 119.247 82.9389 119.247C81.5298 119.247 80.3026 119.031 79.2571 118.599C78.2173 118.168 77.4048 117.528 76.8196 116.682C76.2401 115.83 75.9361 114.776 75.9077 113.52H79.4787C79.5185 114.105 79.6861 114.594 79.9815 114.986C80.2827 115.372 80.6832 115.665 81.1832 115.864C81.6889 116.057 82.2599 116.153 82.8963 116.153C83.5213 116.153 84.0639 116.062 84.5241 115.881C84.9901 115.699 85.3509 115.446 85.6065 115.122C85.8622 114.798 85.9901 114.426 85.9901 114.006C85.9901 113.614 85.8736 113.284 85.6406 113.017C85.4134 112.75 85.0781 112.523 84.6349 112.335C84.1974 112.148 83.6605 111.977 83.0241 111.824L81.1236 111.347C79.652 110.989 78.4901 110.429 77.6378 109.668C76.7855 108.906 76.3622 107.881 76.3679 106.591C76.3622 105.534 76.6435 104.611 77.2116 103.821C77.7855 103.031 78.5724 102.415 79.5724 101.972C80.5724 101.528 81.7088 101.307 82.9815 101.307C84.277 101.307 85.4077 101.528 86.3736 101.972C87.3452 102.415 88.1009 103.031 88.6406 103.821C89.1804 104.611 89.4588 105.526 89.4759 106.565H85.9389ZM98.0433 119.256C96.7195 119.256 95.5746 118.974 94.6087 118.412C93.6484 117.844 92.907 117.054 92.3842 116.043C91.8615 115.026 91.6001 113.847 91.6001 112.506C91.6001 111.153 91.8615 109.972 92.3842 108.96C92.907 107.943 93.6484 107.153 94.6087 106.591C95.5746 106.023 96.7195 105.739 98.0433 105.739C99.3672 105.739 100.509 106.023 101.469 106.591C102.435 107.153 103.18 107.943 103.702 108.96C104.225 109.972 104.487 111.153 104.487 112.506C104.487 113.847 104.225 115.026 103.702 116.043C103.18 117.054 102.435 117.844 101.469 118.412C100.509 118.974 99.3672 119.256 98.0433 119.256ZM98.0604 116.443C98.6626 116.443 99.1655 116.273 99.5689 115.932C99.9723 115.585 100.276 115.114 100.481 114.517C100.691 113.92 100.796 113.241 100.796 112.48C100.796 111.719 100.691 111.04 100.481 110.443C100.276 109.847 99.9723 109.375 99.5689 109.028C99.1655 108.682 98.6626 108.509 98.0604 108.509C97.4524 108.509 96.9411 108.682 96.5263 109.028C96.1172 109.375 95.8075 109.847 95.5973 110.443C95.3928 111.04 95.2905 111.719 95.2905 112.48C95.2905 113.241 95.3928 113.92 95.5973 114.517C95.8075 115.114 96.1172 115.585 96.5263 115.932C96.9411 116.273 97.4524 116.443 98.0604 116.443ZM112.762 119.256C111.438 119.256 110.293 118.974 109.327 118.412C108.367 117.844 107.626 117.054 107.103 116.043C106.58 115.026 106.319 113.847 106.319 112.506C106.319 111.153 106.58 109.972 107.103 108.96C107.626 107.943 108.367 107.153 109.327 106.591C110.293 106.023 111.438 105.739 112.762 105.739C114.086 105.739 115.228 106.023 116.188 106.591C117.154 107.153 117.898 107.943 118.421 108.96C118.944 109.972 119.205 111.153 119.205 112.506C119.205 113.847 118.944 115.026 118.421 116.043C117.898 117.054 117.154 117.844 116.188 118.412C115.228 118.974 114.086 119.256 112.762 119.256ZM112.779 116.443C113.381 116.443 113.884 116.273 114.288 115.932C114.691 115.585 114.995 115.114 115.2 114.517C115.41 113.92 115.515 113.241 115.515 112.48C115.515 111.719 115.41 111.04 115.2 110.443C114.995 109.847 114.691 109.375 114.288 109.028C113.884 108.682 113.381 108.509 112.779 108.509C112.171 108.509 111.66 108.682 111.245 109.028C110.836 109.375 110.526 109.847 110.316 110.443C110.112 111.04 110.009 111.719 110.009 112.48C110.009 113.241 110.112 113.92 110.316 114.517C110.526 115.114 110.836 115.585 111.245 115.932C111.66 116.273 112.171 116.443 112.779 116.443ZM125.197 111.432V119H121.566V105.909H125.026V108.219H125.18C125.469 107.457 125.955 106.855 126.637 106.412C127.319 105.963 128.146 105.739 129.117 105.739C130.026 105.739 130.819 105.938 131.495 106.335C132.171 106.733 132.697 107.301 133.072 108.04C133.447 108.773 133.634 109.648 133.634 110.665V119H130.004V111.312C130.009 110.511 129.805 109.886 129.39 109.438C128.975 108.983 128.404 108.756 127.677 108.756C127.188 108.756 126.756 108.861 126.381 109.071C126.012 109.281 125.722 109.588 125.512 109.991C125.308 110.389 125.202 110.869 125.197 111.432Z" fill="#D1D1D1"/>
<path d="M115.703 39.1094C111.406 31.2969 110.074 29.3438 105.156 29.3438C100.238 29.3438 98.3747 32.293 94.0779 40.0742C90.3982 46.7266 82.9607 47.2813 81.1052 52.9297C80.7263 53.9648 80.5388 55.5742 80.5466 56.6875C80.5466 61.2813 83.6208 64.5 87.5779 64.5C92.4958 64.5 99.2966 60.5938 105.156 60.5938C111.015 60.5938 117.816 64.5 122.734 64.5C126.691 64.5 129.765 61.2852 129.765 56.6875C129.765 55.5742 129.574 53.9648 129.195 52.9297C127.34 47.2617 119.383 45.7617 115.703 39.1094Z" stroke="#D1D1D1" stroke-width="4" stroke-linecap="round" stroke-linejoin="round"/>
<path d="M137.14 17.9453C136.639 17.7332 136.099 17.6243 135.554 17.625H135.496C132.625 17.6719 129.402 20.5547 127.711 24.9141C125.683 30.1289 126.617 35.4609 129.812 36.8359C130.316 37.0508 130.855 37.1563 131.398 37.1563C134.285 37.1563 137.55 34.2578 139.254 29.8672C141.269 24.6523 140.316 19.3203 137.14 17.9453Z" stroke="#D1D1D1" stroke-width="4" stroke-linecap="round" stroke-linejoin="round"/>
<path d="M95.2887 21.5312C95.5036 21.5312 95.7145 21.5312 95.9254 21.4883C99.6129 20.9883 101.914 16.2305 101.082 10.8555C100.289 5.78906 96.9918 2 93.5348 2C93.32 2 93.109 2 92.8981 2.04297C89.2106 2.54297 86.9098 7.30078 87.7418 12.6758C88.5387 17.7266 91.8317 21.5312 95.2887 21.5312Z" stroke="#D1D1D1" stroke-width="4" stroke-linecap="round" stroke-linejoin="round"/>
<path d="M122.562 12.6758C123.398 7.30079 121.097 2.54298 117.406 2.04298C117.196 2.01394 116.985 1.99958 116.773 2.00001C113.316 2.00001 110.023 5.78907 109.234 10.8555C108.398 16.2305 110.699 20.9883 114.39 21.4883C114.601 21.5156 114.812 21.5313 115.023 21.5313C118.48 21.5313 121.781 17.7266 122.562 12.6758Z" stroke="#D1D1D1" stroke-width="4" stroke-linecap="round" stroke-linejoin="round"/>
<path d="M80.5071 36.8359C83.6946 35.4609 84.6243 30.1211 82.6009 24.9141C80.8977 20.5234 77.636 17.625 74.7532 17.625C74.2063 17.625 73.6712 17.7305 73.1634 17.9453C69.9759 19.3203 69.0462 24.6602 71.0696 29.8672C72.7727 34.2578 76.0345 37.1562 78.9173 37.1562C79.4642 37.1562 79.9993 37.0508 80.5071 36.8359Z" stroke="#D1D1D1" stroke-width="4" stroke-linecap="round" stroke-linejoin="round"/>
</svg>
