<svg width="75" height="121" viewBox="0 0 75 121" fill="none" xmlns="http://www.w3.org/2000/svg">
<path d="M14.9645 79V67.3636H19.5554C20.438 67.3636 21.1899 67.5322 21.8111 67.8693C22.4323 68.2027 22.9058 68.6667 23.2315 69.2614C23.5611 69.8523 23.7259 70.5341 23.7259 71.3068C23.7259 72.0795 23.5592 72.7614 23.2259 73.3523C22.8925 73.9432 22.4096 74.4034 21.777 74.733C21.1482 75.0625 20.3868 75.2273 19.4929 75.2273H16.5668V73.2557H19.0952C19.5687 73.2557 19.9588 73.1742 20.2656 73.0114C20.5762 72.8447 20.8073 72.6155 20.9588 72.3239C21.1141 72.0284 21.1918 71.6894 21.1918 71.3068C21.1918 70.9205 21.1141 70.5833 20.9588 70.2955C20.8073 70.0038 20.5762 69.7784 20.2656 69.6193C19.955 69.4564 19.5611 69.375 19.0838 69.375H17.4247V79H14.9645ZM27.6989 73.9545V79H25.2784V67.3636H27.6307V71.8125H27.733C27.9299 71.2973 28.2481 70.8939 28.6875 70.6023C29.1269 70.3068 29.678 70.1591 30.3409 70.1591C30.947 70.1591 31.4754 70.2917 31.9261 70.5568C32.3807 70.8182 32.733 71.1951 32.983 71.6875C33.2367 72.1761 33.3617 72.7614 33.358 73.4432V79H30.9375V73.875C30.9413 73.3371 30.8049 72.9186 30.5284 72.6193C30.2557 72.3201 29.8731 72.1705 29.3807 72.1705C29.0511 72.1705 28.7595 72.2405 28.5057 72.3807C28.2557 72.5208 28.0587 72.7254 27.9148 72.9943C27.7746 73.2595 27.7027 73.5795 27.6989 73.9545ZM39.206 79.1705C38.3234 79.1705 37.5601 78.983 36.9162 78.608C36.276 78.2292 35.7817 77.7027 35.4332 77.0284C35.0848 76.3504 34.9105 75.5644 34.9105 74.6705C34.9105 73.7689 35.0848 72.9811 35.4332 72.3068C35.7817 71.6288 36.276 71.1023 36.9162 70.7273C37.5601 70.3485 38.3234 70.1591 39.206 70.1591C40.0885 70.1591 40.8499 70.3485 41.4901 70.7273C42.134 71.1023 42.6302 71.6288 42.9787 72.3068C43.3272 72.9811 43.5014 73.7689 43.5014 74.6705C43.5014 75.5644 43.3272 76.3504 42.9787 77.0284C42.6302 77.7027 42.134 78.2292 41.4901 78.608C40.8499 78.983 40.0885 79.1705 39.206 79.1705ZM39.2173 77.2955C39.6188 77.2955 39.9541 77.1818 40.223 76.9545C40.492 76.7235 40.6946 76.4091 40.831 76.0114C40.9711 75.6136 41.0412 75.161 41.0412 74.6534C41.0412 74.1458 40.9711 73.6932 40.831 73.2955C40.6946 72.8977 40.492 72.5833 40.223 72.3523C39.9541 72.1212 39.6188 72.0057 39.2173 72.0057C38.812 72.0057 38.4711 72.1212 38.1946 72.3523C37.9219 72.5833 37.7154 72.8977 37.5753 73.2955C37.4389 73.6932 37.3707 74.1458 37.3707 74.6534C37.3707 75.161 37.4389 75.6136 37.5753 76.0114C37.7154 76.4091 37.9219 76.7235 38.1946 76.9545C38.4711 77.1818 38.812 77.2955 39.2173 77.2955ZM49.7173 70.2727V72.0909H44.4616V70.2727H49.7173ZM45.6548 68.1818H48.0753V76.3182C48.0753 76.5417 48.1094 76.7159 48.1776 76.8409C48.2457 76.9621 48.3404 77.0473 48.4616 77.0966C48.5866 77.1458 48.7306 77.1705 48.8935 77.1705C49.0071 77.1705 49.1207 77.161 49.2344 77.142C49.348 77.1193 49.4351 77.1023 49.4957 77.0909L49.8764 78.892C49.7552 78.9299 49.5848 78.9735 49.3651 79.0227C49.1454 79.0758 48.8783 79.108 48.5639 79.1193C47.9806 79.142 47.4692 79.0644 47.0298 78.8864C46.5942 78.7083 46.2552 78.4318 46.0128 78.0568C45.7704 77.6818 45.651 77.2083 45.6548 76.6364V68.1818ZM55.1435 79.1705C54.2609 79.1705 53.4976 78.983 52.8537 78.608C52.2135 78.2292 51.7192 77.7027 51.3707 77.0284C51.0223 76.3504 50.848 75.5644 50.848 74.6705C50.848 73.7689 51.0223 72.9811 51.3707 72.3068C51.7192 71.6288 52.2135 71.1023 52.8537 70.7273C53.4976 70.3485 54.2609 70.1591 55.1435 70.1591C56.026 70.1591 56.7874 70.3485 57.4276 70.7273C58.0715 71.1023 58.5677 71.6288 58.9162 72.3068C59.2647 72.9811 59.4389 73.7689 59.4389 74.6705C59.4389 75.5644 59.2647 76.3504 58.9162 77.0284C58.5677 77.7027 58.0715 78.2292 57.4276 78.608C56.7874 78.983 56.026 79.1705 55.1435 79.1705ZM55.1548 77.2955C55.5563 77.2955 55.8916 77.1818 56.1605 76.9545C56.4295 76.7235 56.6321 76.4091 56.7685 76.0114C56.9086 75.6136 56.9787 75.161 56.9787 74.6534C56.9787 74.1458 56.9086 73.6932 56.7685 73.2955C56.6321 72.8977 56.4295 72.5833 56.1605 72.3523C55.8916 72.1212 55.5563 72.0057 55.1548 72.0057C54.7495 72.0057 54.4086 72.1212 54.1321 72.3523C53.8594 72.5833 53.6529 72.8977 53.5128 73.2955C53.3764 73.6932 53.3082 74.1458 53.3082 74.6534C53.3082 75.161 53.3764 75.6136 53.5128 76.0114C53.6529 76.4091 53.8594 76.7235 54.1321 76.9545C54.4086 77.1818 54.7495 77.2955 55.1548 77.2955ZM17.8409 90.4375H15.3523C15.3068 90.1155 15.214 89.8295 15.0739 89.5795C14.9337 89.3258 14.7538 89.1098 14.5341 88.9318C14.3144 88.7538 14.0606 88.6174 13.7727 88.5227C13.4886 88.428 13.1799 88.3807 12.8466 88.3807C12.2443 88.3807 11.7197 88.5303 11.2727 88.8295C10.8258 89.125 10.4792 89.5568 10.233 90.125C9.98674 90.6894 9.86364 91.375 9.86364 92.1818C9.86364 93.0114 9.98674 93.7083 10.233 94.2727C10.483 94.8371 10.8314 95.2633 11.2784 95.5511C11.7254 95.839 12.2424 95.983 12.8295 95.983C13.1591 95.983 13.464 95.9394 13.7443 95.8523C14.0284 95.7652 14.2803 95.6383 14.5 95.4716C14.7197 95.3011 14.9015 95.0947 15.0455 94.8523C15.1932 94.6098 15.2955 94.3333 15.3523 94.0227L17.8409 94.0341C17.7765 94.5682 17.6155 95.0833 17.358 95.5795C17.1042 96.072 16.7614 96.5133 16.3295 96.9034C15.9015 97.2898 15.3902 97.5966 14.7955 97.8239C14.2045 98.0473 13.536 98.1591 12.7898 98.1591C11.7519 98.1591 10.8239 97.9242 10.0057 97.4545C9.19129 96.9848 8.54735 96.3049 8.07386 95.4148C7.60417 94.5246 7.36932 93.447 7.36932 92.1818C7.36932 90.9129 7.60795 89.8333 8.08523 88.9432C8.5625 88.053 9.21023 87.375 10.0284 86.9091C10.8466 86.4394 11.767 86.2045 12.7898 86.2045C13.464 86.2045 14.089 86.2992 14.6648 86.4886C15.2443 86.678 15.7576 86.9545 16.2045 87.3182C16.6515 87.678 17.0152 88.1193 17.2955 88.642C17.5795 89.1648 17.7614 89.7633 17.8409 90.4375ZM23.5028 98.1705C22.6203 98.1705 21.857 97.983 21.2131 97.608C20.5729 97.2292 20.0786 96.7027 19.7301 96.0284C19.3816 95.3504 19.2074 94.5644 19.2074 93.6705C19.2074 92.7689 19.3816 91.9811 19.7301 91.3068C20.0786 90.6288 20.5729 90.1023 21.2131 89.7273C21.857 89.3485 22.6203 89.1591 23.5028 89.1591C24.3854 89.1591 25.1468 89.3485 25.7869 89.7273C26.4309 90.1023 26.9271 90.6288 27.2756 91.3068C27.6241 91.9811 27.7983 92.7689 27.7983 93.6705C27.7983 94.5644 27.6241 95.3504 27.2756 96.0284C26.9271 96.7027 26.4309 97.2292 25.7869 97.608C25.1468 97.983 24.3854 98.1705 23.5028 98.1705ZM23.5142 96.2955C23.9157 96.2955 24.2509 96.1818 24.5199 95.9545C24.7888 95.7235 24.9915 95.4091 25.1278 95.0114C25.268 94.6136 25.3381 94.161 25.3381 93.6534C25.3381 93.1458 25.268 92.6932 25.1278 92.2955C24.9915 91.8977 24.7888 91.5833 24.5199 91.3523C24.2509 91.1212 23.9157 91.0057 23.5142 91.0057C23.1089 91.0057 22.768 91.1212 22.4915 91.3523C22.2188 91.5833 22.0123 91.8977 21.8722 92.2955C21.7358 92.6932 21.6676 93.1458 21.6676 93.6534C21.6676 94.161 21.7358 94.6136 21.8722 95.0114C22.0123 95.4091 22.2188 95.7235 22.4915 95.9545C22.768 96.1818 23.1089 96.2955 23.5142 96.2955ZM29.3722 98V89.2727H31.679V90.8125H31.7812C31.9631 90.3011 32.2661 89.8977 32.6903 89.6023C33.1146 89.3068 33.6222 89.1591 34.2131 89.1591C34.8116 89.1591 35.321 89.3087 35.7415 89.608C36.1619 89.9034 36.4422 90.3049 36.5824 90.8125H36.6733C36.8513 90.3125 37.1733 89.9129 37.6392 89.6136C38.1089 89.3106 38.6638 89.1591 39.304 89.1591C40.1184 89.1591 40.7794 89.4186 41.2869 89.9375C41.7983 90.4527 42.054 91.1837 42.054 92.1307V98H39.6392V92.608C39.6392 92.1231 39.5104 91.7595 39.2528 91.517C38.9953 91.2746 38.6733 91.1534 38.2869 91.1534C37.8475 91.1534 37.5047 91.2936 37.2585 91.5739C37.0123 91.8504 36.8892 92.2159 36.8892 92.6705V98H34.5426V92.5568C34.5426 92.1288 34.4195 91.7879 34.1733 91.5341C33.9309 91.2803 33.6108 91.1534 33.2131 91.1534C32.9441 91.1534 32.7017 91.2216 32.4858 91.358C32.2737 91.4905 32.1051 91.678 31.9801 91.9205C31.8551 92.1591 31.7926 92.4394 31.7926 92.7614V98H29.3722ZM43.9659 98V89.2727H46.3864V98H43.9659ZM45.1818 88.1477C44.822 88.1477 44.5133 88.0284 44.2557 87.7898C44.0019 87.5473 43.875 87.2576 43.875 86.9205C43.875 86.5871 44.0019 86.3011 44.2557 86.0625C44.5133 85.8201 44.822 85.6989 45.1818 85.6989C45.5417 85.6989 45.8485 85.8201 46.1023 86.0625C46.3598 86.3011 46.4886 86.5871 46.4886 86.9205C46.4886 87.2576 46.3598 87.5473 46.1023 87.7898C45.8485 88.0284 45.5417 88.1477 45.1818 88.1477ZM50.7457 92.9545V98H48.3253V89.2727H50.6321V90.8125H50.7344C50.9276 90.3049 51.2514 89.9034 51.706 89.608C52.1605 89.3087 52.7116 89.1591 53.3594 89.1591C53.9654 89.1591 54.4938 89.2917 54.9446 89.5568C55.3954 89.822 55.7457 90.2008 55.9957 90.6932C56.2457 91.1818 56.3707 91.7652 56.3707 92.4432V98H53.9503V92.875C53.9541 92.3409 53.8177 91.9242 53.5412 91.625C53.2647 91.322 52.884 91.1705 52.3991 91.1705C52.0734 91.1705 51.7855 91.2405 51.5355 91.3807C51.2893 91.5208 51.0961 91.7254 50.956 91.9943C50.8196 92.2595 50.7495 92.5795 50.7457 92.9545ZM62.2102 101.455C61.4261 101.455 60.7538 101.347 60.1932 101.131C59.6364 100.919 59.1932 100.629 58.8636 100.261C58.5341 99.8939 58.3201 99.4811 58.2216 99.0227L60.4602 98.7216C60.5284 98.8958 60.6364 99.0587 60.7841 99.2102C60.9318 99.3617 61.1269 99.483 61.3693 99.5739C61.6155 99.6686 61.9148 99.7159 62.267 99.7159C62.7936 99.7159 63.2273 99.5871 63.5682 99.3295C63.9129 99.0758 64.0852 98.6496 64.0852 98.0511V96.4545H63.983C63.8769 96.697 63.7178 96.9261 63.5057 97.142C63.2936 97.358 63.0208 97.5341 62.6875 97.6705C62.3542 97.8068 61.9564 97.875 61.4943 97.875C60.839 97.875 60.2424 97.7235 59.7045 97.4205C59.1705 97.1136 58.7443 96.6458 58.4261 96.017C58.1117 95.3845 57.9545 94.5852 57.9545 93.6193C57.9545 92.6307 58.1155 91.8049 58.4375 91.142C58.7595 90.4792 59.1875 89.983 59.7216 89.6534C60.2595 89.3239 60.8485 89.1591 61.4886 89.1591C61.9773 89.1591 62.3864 89.2424 62.7159 89.4091C63.0455 89.572 63.3106 89.7765 63.5114 90.0227C63.7159 90.2652 63.8731 90.5038 63.983 90.7386H64.0739V89.2727H66.4773V98.0852C66.4773 98.8277 66.2955 99.4489 65.9318 99.9489C65.5682 100.449 65.0644 100.824 64.4205 101.074C63.7803 101.328 63.0436 101.455 62.2102 101.455ZM62.2614 96.0568C62.6515 96.0568 62.9811 95.9602 63.25 95.767C63.5227 95.5701 63.7311 95.2898 63.875 94.9261C64.0227 94.5587 64.0966 94.1193 64.0966 93.608C64.0966 93.0966 64.0246 92.6534 63.8807 92.2784C63.7367 91.8996 63.5284 91.6061 63.2557 91.3977C62.983 91.1894 62.6515 91.0852 62.2614 91.0852C61.8636 91.0852 61.5284 91.1932 61.2557 91.4091C60.983 91.6212 60.7765 91.9167 60.6364 92.2955C60.4962 92.6742 60.4261 93.1117 60.4261 93.608C60.4261 94.1117 60.4962 94.5473 60.6364 94.9148C60.7803 95.2784 60.9867 95.5606 61.2557 95.7614C61.5284 95.9583 61.8636 96.0568 62.2614 96.0568ZM24.2926 108.71C24.2472 108.252 24.0521 107.896 23.7074 107.642C23.3627 107.388 22.8949 107.261 22.304 107.261C21.9025 107.261 21.5634 107.318 21.2869 107.432C21.0104 107.542 20.7983 107.695 20.6506 107.892C20.5066 108.089 20.4347 108.312 20.4347 108.562C20.4271 108.771 20.4706 108.953 20.5653 109.108C20.6638 109.263 20.7983 109.398 20.9688 109.511C21.1392 109.621 21.3362 109.718 21.5597 109.801C21.7831 109.881 22.0218 109.949 22.2756 110.006L23.321 110.256C23.8286 110.369 24.2945 110.521 24.7188 110.71C25.143 110.9 25.5104 111.133 25.821 111.409C26.1316 111.686 26.3722 112.011 26.5426 112.386C26.7169 112.761 26.8059 113.191 26.8097 113.676C26.8059 114.388 26.6241 115.006 26.2642 115.528C25.9081 116.047 25.393 116.451 24.7188 116.739C24.0483 117.023 23.2396 117.165 22.2926 117.165C21.3532 117.165 20.535 117.021 19.8381 116.733C19.1449 116.445 18.6032 116.019 18.2131 115.455C17.8267 114.886 17.6241 114.184 17.6051 113.347H19.9858C20.0123 113.737 20.1241 114.062 20.321 114.324C20.5218 114.581 20.7888 114.777 21.1222 114.909C21.4593 115.038 21.84 115.102 22.2642 115.102C22.6809 115.102 23.0426 115.042 23.3494 114.92C23.66 114.799 23.9006 114.631 24.071 114.415C24.2415 114.199 24.3267 113.951 24.3267 113.67C24.3267 113.409 24.2491 113.189 24.0938 113.011C23.9422 112.833 23.7188 112.682 23.4233 112.557C23.1316 112.432 22.7737 112.318 22.3494 112.216L21.0824 111.898C20.1013 111.659 19.3267 111.286 18.7585 110.778C18.1903 110.271 17.9081 109.587 17.9119 108.727C17.9081 108.023 18.0956 107.407 18.4744 106.881C18.857 106.354 19.3816 105.943 20.0483 105.648C20.715 105.352 21.4725 105.205 22.321 105.205C23.1847 105.205 23.9384 105.352 24.5824 105.648C25.2301 105.943 25.7339 106.354 26.0938 106.881C26.4536 107.407 26.6392 108.017 26.6506 108.71H24.2926ZM32.3622 117.17C31.4796 117.17 30.7164 116.983 30.0724 116.608C29.4323 116.229 28.938 115.703 28.5895 115.028C28.241 114.35 28.0668 113.564 28.0668 112.67C28.0668 111.769 28.241 110.981 28.5895 110.307C28.938 109.629 29.4323 109.102 30.0724 108.727C30.7164 108.348 31.4796 108.159 32.3622 108.159C33.2448 108.159 34.0062 108.348 34.6463 108.727C35.2902 109.102 35.7865 109.629 36.1349 110.307C36.4834 110.981 36.6577 111.769 36.6577 112.67C36.6577 113.564 36.4834 114.35 36.1349 115.028C35.7865 115.703 35.2902 116.229 34.6463 116.608C34.0062 116.983 33.2448 117.17 32.3622 117.17ZM32.3736 115.295C32.7751 115.295 33.1103 115.182 33.3793 114.955C33.6482 114.723 33.8509 114.409 33.9872 114.011C34.1274 113.614 34.1974 113.161 34.1974 112.653C34.1974 112.146 34.1274 111.693 33.9872 111.295C33.8509 110.898 33.6482 110.583 33.3793 110.352C33.1103 110.121 32.7751 110.006 32.3736 110.006C31.9683 110.006 31.6274 110.121 31.3509 110.352C31.0781 110.583 30.8717 110.898 30.7315 111.295C30.5952 111.693 30.527 112.146 30.527 112.653C30.527 113.161 30.5952 113.614 30.7315 114.011C30.8717 114.409 31.0781 114.723 31.3509 114.955C31.6274 115.182 31.9683 115.295 32.3736 115.295ZM42.1747 117.17C41.2921 117.17 40.5289 116.983 39.8849 116.608C39.2448 116.229 38.7505 115.703 38.402 115.028C38.0535 114.35 37.8793 113.564 37.8793 112.67C37.8793 111.769 38.0535 110.981 38.402 110.307C38.7505 109.629 39.2448 109.102 39.8849 108.727C40.5289 108.348 41.2921 108.159 42.1747 108.159C43.0573 108.159 43.8187 108.348 44.4588 108.727C45.1027 109.102 45.599 109.629 45.9474 110.307C46.2959 110.981 46.4702 111.769 46.4702 112.67C46.4702 113.564 46.2959 114.35 45.9474 115.028C45.599 115.703 45.1027 116.229 44.4588 116.608C43.8187 116.983 43.0573 117.17 42.1747 117.17ZM42.1861 115.295C42.5876 115.295 42.9228 115.182 43.1918 114.955C43.4607 114.723 43.6634 114.409 43.7997 114.011C43.9399 113.614 44.0099 113.161 44.0099 112.653C44.0099 112.146 43.9399 111.693 43.7997 111.295C43.6634 110.898 43.4607 110.583 43.1918 110.352C42.9228 110.121 42.5876 110.006 42.1861 110.006C41.7808 110.006 41.4399 110.121 41.1634 110.352C40.8906 110.583 40.6842 110.898 40.544 111.295C40.4077 111.693 40.3395 112.146 40.3395 112.653C40.3395 113.161 40.4077 113.614 40.544 114.011C40.6842 114.409 40.8906 114.723 41.1634 114.955C41.4399 115.182 41.7808 115.295 42.1861 115.295ZM50.4645 111.955V117H48.044V108.273H50.3509V109.812H50.4531C50.6463 109.305 50.9702 108.903 51.4247 108.608C51.8793 108.309 52.4304 108.159 53.0781 108.159C53.6842 108.159 54.2126 108.292 54.6634 108.557C55.1141 108.822 55.4645 109.201 55.7145 109.693C55.9645 110.182 56.0895 110.765 56.0895 111.443V117H53.669V111.875C53.6728 111.341 53.5365 110.924 53.2599 110.625C52.9834 110.322 52.6027 110.17 52.1179 110.17C51.7921 110.17 51.5043 110.241 51.2543 110.381C51.008 110.521 50.8149 110.725 50.6747 110.994C50.5384 111.259 50.4683 111.58 50.4645 111.955Z" fill="#0B2B04"/>
<path d="M47.7029 39.1094C43.406 31.2969 42.074 29.3438 37.156 29.3438C32.238 29.3438 30.3747 32.293 26.0779 40.0742C22.3982 46.7266 14.9607 47.2813 13.1052 52.9297C12.7263 53.9648 12.5388 55.5742 12.5466 56.6875C12.5466 61.2813 15.6208 64.5 19.5779 64.5C24.4958 64.5 31.2966 60.5938 37.156 60.5938C43.0154 60.5938 49.8162 64.5 54.7341 64.5C58.6912 64.5 61.7654 61.2852 61.7654 56.6875C61.7654 55.5742 61.574 53.9648 61.1951 52.9297C59.3396 47.2617 51.3826 45.7617 47.7029 39.1094Z" stroke="#0B2B04" stroke-width="4" stroke-linecap="round" stroke-linejoin="round"/>
<path d="M69.1403 17.9453C68.6385 17.7332 68.0992 17.6243 67.5544 17.625H67.4958C64.6247 17.6719 61.4021 20.5547 59.7106 24.9141C57.6833 30.1289 58.6169 35.4609 61.8122 36.8359C62.3161 37.0508 62.8552 37.1563 63.3981 37.1563C66.2849 37.1563 69.5505 34.2578 71.2536 29.8672C73.2692 24.6523 72.3161 19.3203 69.1403 17.9453Z" stroke="#0B2B04" stroke-width="4" stroke-linecap="round" stroke-linejoin="round"/>
<path d="M27.2887 21.5312C27.5036 21.5312 27.7145 21.5312 27.9254 21.4883C31.6129 20.9883 33.9137 16.2305 33.0817 10.8555C32.2887 5.78906 28.9918 2 25.5348 2C25.32 2 25.109 2 24.8981 2.04297C21.2106 2.54297 18.9098 7.30078 19.7418 12.6758C20.5387 17.7266 23.8317 21.5312 27.2887 21.5312Z" stroke="#0B2B04" stroke-width="4" stroke-linecap="round" stroke-linejoin="round"/>
<path d="M54.5621 12.6758C55.398 7.30079 53.0972 2.54298 49.4058 2.04298C49.1962 2.01394 48.9847 1.99958 48.773 2.00001C45.316 2.00001 42.023 5.78907 41.234 10.8555C40.398 16.2305 42.6988 20.9883 46.3902 21.4883C46.6011 21.5156 46.8121 21.5313 47.023 21.5313C50.4801 21.5313 53.7808 17.7266 54.5621 12.6758Z" stroke="#0B2B04" stroke-width="4" stroke-linecap="round" stroke-linejoin="round"/>
<path d="M12.5071 36.8359C15.6946 35.4609 16.6243 30.1211 14.6009 24.9141C12.8977 20.5234 9.63603 17.625 6.75322 17.625C6.20634 17.625 5.67118 17.7305 5.16337 17.9453C1.97587 19.3203 1.04619 24.6602 3.06962 29.8672C4.77275 34.2578 8.03447 37.1562 10.9173 37.1562C11.4642 37.1562 11.9993 37.0508 12.5071 36.8359Z" stroke="#0B2B04" stroke-width="4" stroke-linecap="round" stroke-linejoin="round"/>
</svg>
