<svg width="61" height="72" viewBox="0 0 61 72" fill="none" xmlns="http://www.w3.org/2000/svg">
<path d="M32.4835 70.6094C31.8451 71.065 31.0803 71.3099 30.296 71.3099C29.5117 71.3099 28.7469 71.065 28.1085 70.6094C9.24524 57.1641 -10.7743 29.5078 9.46399 9.52345C15.0181 4.05515 22.5017 0.993222 30.296 1.00001C38.1085 1.00001 45.6046 4.06642 51.128 9.51954C71.3663 29.5039 51.3468 57.1563 32.4835 70.6094Z" stroke="black" stroke-linecap="round" stroke-linejoin="round"/>
<path d="M30.2959 36.1562C32.3679 36.1562 34.355 35.3331 35.8202 33.868C37.2853 32.4029 38.1084 30.4158 38.1084 28.3438C38.1084 26.2717 37.2853 24.2846 35.8202 22.8195C34.355 21.3544 32.3679 20.5312 30.2959 20.5312C28.2239 20.5312 26.2368 21.3544 24.7716 22.8195C23.3065 24.2846 22.4834 26.2717 22.4834 28.3438C22.4834 30.4158 23.3065 32.4029 24.7716 33.868C26.2368 35.3331 28.2239 36.1562 30.2959 36.1562Z" stroke="black" stroke-linecap="round" stroke-linejoin="round"/>
</svg>
