<svg width="72" height="64" viewBox="0 0 72 64" fill="none" xmlns="http://www.w3.org/2000/svg">
<path d="M46.7029 38.1094C42.406 30.2969 41.074 28.3438 36.156 28.3438C31.238 28.3438 29.3747 31.293 25.0779 39.0742C21.3982 45.7266 13.9607 46.2813 12.1052 51.9297C11.7263 52.9648 11.5388 54.5742 11.5466 55.6875C11.5466 60.2813 14.6208 63.5 18.5779 63.5C23.4958 63.5 30.2966 59.5938 36.156 59.5938C42.0154 59.5938 48.8162 63.5 53.7341 63.5C57.6912 63.5 60.7654 60.2852 60.7654 55.6875C60.7654 54.5742 60.574 52.9648 60.1951 51.9297C58.3396 46.2617 50.3826 44.7617 46.7029 38.1094Z" stroke="black" stroke-linecap="round" stroke-linejoin="round"/>
<path d="M68.1403 16.9453C67.6385 16.7332 67.0992 16.6243 66.5544 16.625H66.4958C63.6247 16.6719 60.4021 19.5547 58.7106 23.9141C56.6833 29.1289 57.6169 34.4609 60.8122 35.8359C61.3161 36.0508 61.8552 36.1563 62.3981 36.1563C65.2849 36.1563 68.5505 33.2578 70.2536 28.8672C72.2692 23.6523 71.3161 18.3203 68.1403 16.9453Z" stroke="black" stroke-linecap="round" stroke-linejoin="round"/>
<path d="M26.2887 20.5312C26.5036 20.5312 26.7145 20.5312 26.9254 20.4883C30.6129 19.9883 32.9137 15.2305 32.0817 9.85547C31.2887 4.78906 27.9918 1 24.5348 1C24.32 1 24.109 1 23.8981 1.04297C20.2106 1.54297 17.9098 6.30078 18.7418 11.6758C19.5387 16.7266 22.8317 20.5312 26.2887 20.5312Z" stroke="black" stroke-linecap="round" stroke-linejoin="round"/>
<path d="M53.5621 11.6758C54.398 6.30079 52.0972 1.54298 48.4058 1.04298C48.1962 1.01394 47.9847 0.999584 47.773 1.00001C44.316 1.00001 41.023 4.78907 40.234 9.85548C39.398 15.2305 41.6988 19.9883 45.3902 20.4883C45.6011 20.5156 45.8121 20.5313 46.023 20.5313C49.4801 20.5313 52.7808 16.7266 53.5621 11.6758Z" stroke="black" stroke-linecap="round" stroke-linejoin="round"/>
<path d="M11.5071 35.8359C14.6946 34.4609 15.6243 29.1211 13.6009 23.9141C11.8977 19.5234 8.63603 16.625 5.75322 16.625C5.20634 16.625 4.67118 16.7305 4.16337 16.9453C0.975872 18.3203 0.0461856 23.6602 2.06962 28.8672C3.77275 33.2578 7.03447 36.1562 9.91728 36.1562C10.4642 36.1562 10.9993 36.0508 11.5071 35.8359Z" stroke="black" stroke-linecap="round" stroke-linejoin="round"/>
</svg>
