<svg width="75" height="67" viewBox="0 0 75 67" fill="none" xmlns="http://www.w3.org/2000/svg">
<path d="M47.7029 39.1094C43.406 31.2969 42.074 29.3438 37.156 29.3438C32.238 29.3438 30.3747 32.293 26.0779 40.0742C22.3982 46.7266 14.9607 47.2813 13.1052 52.9297C12.7263 53.9648 12.5388 55.5742 12.5466 56.6875C12.5466 61.2813 15.6208 64.5 19.5779 64.5C24.4958 64.5 31.2966 60.5938 37.156 60.5938C43.0154 60.5938 49.8162 64.5 54.7341 64.5C58.6912 64.5 61.7654 61.2852 61.7654 56.6875C61.7654 55.5742 61.574 53.9648 61.1951 52.9297C59.3396 47.2617 51.3826 45.7617 47.7029 39.1094Z" stroke="#0B2B04" stroke-width="4" stroke-linecap="round" stroke-linejoin="round"/>
<path d="M69.1403 17.9453C68.6385 17.7332 68.0992 17.6243 67.5544 17.625H67.4958C64.6247 17.6719 61.4021 20.5547 59.7106 24.9141C57.6833 30.1289 58.6169 35.4609 61.8122 36.8359C62.3161 37.0508 62.8552 37.1563 63.3981 37.1563C66.2849 37.1563 69.5505 34.2578 71.2536 29.8672C73.2692 24.6523 72.3161 19.3203 69.1403 17.9453Z" stroke="#0B2B04" stroke-width="4" stroke-linecap="round" stroke-linejoin="round"/>
<path d="M27.2887 21.5312C27.5036 21.5312 27.7145 21.5312 27.9254 21.4883C31.6129 20.9883 33.9137 16.2305 33.0817 10.8555C32.2887 5.78906 28.9918 2 25.5348 2C25.32 2 25.109 2 24.8981 2.04297C21.2106 2.54297 18.9098 7.30078 19.7418 12.6758C20.5387 17.7266 23.8317 21.5312 27.2887 21.5312Z" stroke="#0B2B04" stroke-width="4" stroke-linecap="round" stroke-linejoin="round"/>
<path d="M54.5621 12.6758C55.398 7.30079 53.0972 2.54298 49.4058 2.04298C49.1962 2.01394 48.9847 1.99958 48.773 2.00001C45.316 2.00001 42.023 5.78907 41.234 10.8555C40.398 16.2305 42.6988 20.9883 46.3902 21.4883C46.6011 21.5156 46.8121 21.5313 47.023 21.5313C50.4801 21.5313 53.7808 17.7266 54.5621 12.6758Z" stroke="#0B2B04" stroke-width="4" stroke-linecap="round" stroke-linejoin="round"/>
<path d="M12.5071 36.8359C15.6946 35.4609 16.6243 30.1211 14.6009 24.9141C12.8977 20.5234 9.63603 17.625 6.75322 17.625C6.20634 17.625 5.67118 17.7305 5.16337 17.9453C1.97587 19.3203 1.04619 24.6602 3.06962 29.8672C4.77275 34.2578 8.03447 37.1562 10.9173 37.1562C11.4642 37.1562 11.9993 37.0508 12.5071 36.8359Z" stroke="#0B2B04" stroke-width="4" stroke-linecap="round" stroke-linejoin="round"/>
</svg>
